# 3ds Max Wavefront OBJ Exporter v0.99 - (c)2007 guruware
# File Created: 08.05.2022 23:17:46

mtllib ben.mtl

#
# object Bench
#

v  -8.1305 2.0459 2.4673
v  -8.1305 2.7709 2.4673
v  -8.5453 2.7709 2.4673
v  -8.5453 2.0459 2.4673
v  -8.1305 2.8758 2.3719
v  -8.1305 2.9418 1.8481
v  -8.5453 2.9418 1.8481
v  -8.5453 2.8760 2.3719
v  -8.1305 3.2584 -2.2249
v  -8.1305 2.5447 -2.2252
v  -8.5453 2.5447 -2.2252
v  -8.5453 3.2584 -2.2251
v  -8.1305 0.0942 1.8400
v  -8.1305 0.0942 2.3678
v  -8.5453 0.0942 2.3678
v  -8.5453 0.0942 1.8400
v  8.8829 2.1122 1.8400
v  8.8829 2.8371 1.8400
v  8.8829 2.7709 2.3678
v  8.8829 2.0459 2.3678
v  -8.8829 2.1122 1.8400
v  -8.8829 2.0459 2.3678
v  -8.8829 2.7709 2.3678
v  -8.8829 2.8371 1.8400
v  -8.8829 2.5447 -1.6061
v  -8.8829 3.2697 -1.6061
v  -8.8829 3.2697 -1.9686
v  -8.8829 2.5447 -1.9686
v  -8.1305 0.0942 -1.9686
v  -8.1305 0.0942 -1.6061
v  -8.5453 0.0942 -1.6061
v  -8.5453 0.0942 -1.9686
v  8.8829 2.5447 -1.6061
v  8.8829 2.5447 -1.9686
v  8.8829 3.2697 -1.9686
v  8.8829 3.2697 -1.6061
v  -8.1305 7.7205 -1.9719
v  -8.1305 7.7205 -2.2107
v  -8.5453 7.7205 -2.2107
v  -8.5453 7.7205 -1.9719
v  -8.1305 3.2697 -1.6061
v  -8.5453 3.2697 -1.6061
v  8.8829 7.7205 -2.2107
v  8.8829 7.7205 -1.9719
v  -8.5453 7.7092 -2.4670
v  -8.1305 7.6979 -2.4667
v  -8.8829 7.7205 -1.9719
v  -8.8829 7.7205 -2.2107
v  8.2401 2.7709 2.3678
v  8.2401 2.8371 1.8400
v  -8.1305 2.8371 1.8400
v  -8.1305 2.7709 2.3678
v  8.2401 3.2697 -1.6061
v  8.2401 7.7205 -1.9719
v  8.2401 7.7205 -2.2107
v  -8.1305 3.2697 -1.9686
v  8.2401 3.2697 -1.9686
v  8.2401 2.5447 -1.9686
v  -8.1305 2.5447 -1.9686
v  8.2401 2.5447 -1.6061
v  -8.1305 2.5447 -1.6061
v  -8.1305 2.1122 1.8400
v  8.2401 2.1122 1.8400
v  8.2401 2.0459 2.3678
v  -8.1305 2.0459 2.3678
v  8.6961 2.8760 2.3719
v  8.6961 2.9418 1.8481
v  8.2401 2.9418 1.8481
v  8.2401 2.8758 2.3719
v  8.6961 3.2697 -1.6061
v  8.6961 7.7205 -1.9719
v  8.6961 7.7205 -2.2107
v  8.2401 3.2584 -2.2249
v  8.2401 7.6979 -2.4667
v  8.6961 7.7092 -2.4670
v  8.6961 3.2584 -2.2251
v  8.6961 2.5447 -2.2252
v  8.2401 2.5447 -2.2252
v  8.2401 0.0942 -1.9686
v  8.6961 0.0942 -1.9686
v  8.6961 0.0942 -1.6061
v  8.2401 0.0942 -1.6061
v  8.2401 0.0942 1.8400
v  8.6961 0.0942 1.8400
v  8.6961 0.0942 2.3678
v  8.2401 0.0942 2.3678
v  8.2401 2.0459 2.4673
v  8.6961 2.0459 2.4673
v  8.6961 2.7709 2.4673
v  8.2401 2.7709 2.4673
v  -8.5453 0.0942 2.4673
v  -8.1305 0.0942 2.4673
v  -8.8829 0.0942 1.8400
v  -8.8829 0.0942 2.3678
v  -8.1305 0.0942 -2.2252
v  -8.5453 0.0942 -2.2252
v  -8.8829 0.0942 -1.9686
v  -8.8829 0.0942 -1.6061
v  8.6961 0.0942 -2.2252
v  8.2401 0.0942 -2.2252
v  8.8829 0.0942 -1.6061
v  8.8829 0.0942 -1.9686
v  8.8829 0.0942 2.3678
v  8.8829 0.0942 1.8400
v  8.2401 0.0942 2.4673
v  8.6961 0.0942 2.4673
v  8.8829 2.8758 2.3719
v  8.8829 2.9418 1.8481
v  8.8829 2.0459 2.4673
v  8.8829 2.7709 2.4673
v  8.8829 3.2584 -2.2249
v  8.8829 2.5447 -2.2252
v  8.8829 7.7092 -2.4670
v  8.6961 7.9058 -1.9719
v  8.8829 7.9058 -1.9719
v  8.8829 7.9058 -2.2107
v  8.6961 7.9058 -2.2107
v  8.8829 0.0942 -2.2252
v  8.8829 0.0942 2.4673
v  -8.7321 2.7709 2.4673
v  -8.7321 2.0459 2.4673
v  -8.7321 2.9418 1.8481
v  -8.7321 2.8758 2.3719
v  -8.7321 2.5447 -2.2252
v  -8.7321 3.2584 -2.2249
v  -8.7321 7.7205 -1.9719
v  -8.7321 3.2697 -1.6061
v  -8.5453 7.9058 -2.2107
v  -8.7321 7.9058 -2.2107
v  -8.7321 7.9058 -1.9719
v  -8.5453 7.9058 -1.9719
v  -8.7321 7.7092 -2.4670
v  -8.7321 0.0942 2.3678
v  -8.7321 0.0942 1.8400
v  -8.7321 0.0942 2.4673
v  -8.7321 0.0942 -2.2252
v  -8.7321 0.0942 -1.6061
v  -8.7321 0.0942 -1.9686
v  8.6961 7.9058 -2.4673
v  8.8829 7.9058 -2.4673
v  -8.7321 7.9058 -2.4673
v  -8.5453 7.9058 -2.4673
v  -8.8829 7.9058 -1.9719
v  -8.8829 7.9058 -2.2107
v  -8.5453 2.8371 1.8400
v  -8.7321 2.8371 1.8400
v  8.6961 2.8371 1.8400
v  -8.5453 2.8761 2.4673
v  -8.1305 2.8761 2.4673
v  -8.7321 2.8761 2.4673
v  -8.8829 2.0459 2.4673
v  -8.8829 2.7709 2.4673
v  -8.8829 0.0942 2.4673
v  8.2401 2.8761 2.4673
v  8.6961 2.8761 2.4673
v  8.8829 2.8761 2.4673
v  -8.8829 2.8758 2.3719
v  -8.8829 2.9418 1.8481
v  -8.8829 2.8761 2.4673
v  -8.8829 3.2584 -2.2249
v  -8.8829 2.5447 -2.2252
v  -8.8829 7.7092 -2.4670
v  -8.8829 0.0942 -2.2252
v  -8.8829 7.9058 -2.4673
# 164 vertices

vn 0.0000 0.0000 1.0000
vn 0.0002 0.9944 0.1056
vn 0.0002 0.9922 0.1249
vn 0.0000 0.9922 0.1249
vn 0.0000 0.9944 0.1056
vn -0.0001 -0.0468 -0.9989
vn 0.0000 0.0001 -1.0000
vn -0.0002 -0.0468 -0.9989
vn 0.0000 -1.0000 -0.0000
vn 1.0000 0.0000 -0.0000
vn -1.0000 0.0000 -0.0000
vn 0.0000 1.0000 -0.0000
vn 0.0004 1.0000 -0.0017
vn 0.0071 0.9994 -0.0342
vn 0.0000 0.0819 0.9966
vn 0.0000 0.0809 0.9967
vn -0.0003 -0.0536 -0.9986
vn -0.0002 -0.0543 -0.9985
vn 0.0000 0.9922 0.1246
vn 0.0000 0.9922 0.1245
vn -0.0004 1.0000 -0.0019
vn 0.0000 -0.0467 -0.9989
vn 0.0000 -0.0543 -0.9985
vn 0.0000 0.0000 -1.0000
vn 0.0000 -0.9936 -0.1129
vn 0.0000 -0.9922 -0.1245
vn -0.0001 0.9922 0.1249
vn -0.0001 0.9944 0.1056
vn -0.0064 0.9994 -0.0342
vn 0.0001 -0.0468 -0.9989
vn 0.0002 -0.0543 -0.9985
vn 0.0002 -0.0536 -0.9986
vn 0.0002 -0.0468 -0.9989
vn -0.0000 0.0001 -1.0000
vn -0.0000 0.0000 1.0000
vn 0.0003 0.9944 0.1056
vn 0.0003 0.9922 0.1249
vn 0.0004 -0.0468 -0.9989
vn 0.0001 0.0001 -1.0000
vn 0.0004 -0.0521 -0.9986
vn 0.0000 0.0786 0.9969
vn -0.0002 0.9922 0.1250
vn -0.0002 0.9944 0.1056
vn -0.0001 0.0001 -1.0000
vn -0.0002 -0.0521 -0.9986
vn 0.0000 -0.0016 -1.0000
vn 0.0000 1.0000 -0.0020
vn 0.0002 1.0000 -0.0020
vn -0.0002 1.0000 -0.0023
vn -0.0001 1.0000 -0.0020
vn 0.0003 1.0000 -0.0020
vn 0.0000 0.0771 -0.9970
vn 0.0136 0.9977 -0.0660
vn -0.0124 0.9977 -0.0660
vn -0.0000 0.9922 0.1245
vn -0.0000 0.9922 0.1250
vn -0.0000 0.9944 0.1056
vn -0.0000 0.0771 -0.9970
vn -0.0000 1.0000 -0.0027
vn 0.0000 -0.0468 -0.9989
vn 0.0000 -0.0521 -0.9986
# 61 vertex normals

vt 2.6942 2.0246 0.0000
vt 2.6942 2.3451 0.0000
vt 2.5382 2.3451 0.0000
vt 2.5382 2.0246 0.0000
vt 2.0955 1.1618 0.0000
vt 2.2771 1.1618 0.0000
vt 2.2771 1.3451 0.0000
vt 2.0955 1.3451 0.0000
vt -2.1798 -0.8201 0.0000
vt -2.1798 -1.1356 0.0000
vt -2.0239 -1.1356 0.0000
vt -2.0238 -0.8201 0.0000
vt 3.0605 2.6905 0.0000
vt 3.0605 2.8890 0.0000
vt 2.8772 2.8890 0.0000
vt 2.8772 2.6905 0.0000
vt -1.3358 0.6122 0.0000
vt -0.8068 0.2852 0.0000
vt -0.5753 0.7679 0.0000
vt -1.1043 1.0948 0.0000
vt -0.2698 -1.5840 0.0000
vt -0.1683 -1.7956 0.0000
vt 0.0636 -1.6523 0.0000
vt -0.0379 -1.4407 0.0000
vt -0.9323 -0.2026 0.0000
vt -0.7004 -0.0593 0.0000
vt -0.7847 0.0771 0.0000
vt -1.0166 -0.0663 0.0000
vt 3.0605 1.2583 0.0000
vt 3.0605 1.3946 0.0000
vt 2.8772 1.3946 0.0000
vt 2.8772 1.2583 0.0000
vt -2.8471 -2.5389 0.0000
vt -3.0392 -2.8499 0.0000
vt -2.5103 -3.1768 0.0000
vt -2.3181 -2.8658 0.0000
vt 1.7341 1.1618 0.0000
vt 1.7341 1.2516 0.0000
vt 1.5508 1.2516 0.0000
vt 1.5508 1.1618 0.0000
vt -2.7338 -0.1033 0.0000
vt -2.7338 1.5609 0.0000
vt -2.8992 1.5609 0.0000
vt -2.8992 -0.1033 0.0000
vt 0.6090 -5.3916 0.0000
vt 0.7357 -5.1867 0.0000
vt -2.0801 1.1475 0.0000
vt -2.2360 1.1425 0.0000
vt 0.6383 0.9582 0.0000
vt 0.5828 1.0480 0.0000
vt 3.7919 -0.5906 0.0000
vt 3.7919 -0.3391 0.0000
vt -2.7338 -0.3391 0.0000
vt -2.7338 -0.5906 0.0000
vt 3.7919 -0.1033 0.0000
vt 3.7919 1.5609 0.0000
vt -2.7629 0.4431 0.0000
vt 3.7629 0.4431 0.0000
vt 3.7629 0.5569 0.0000
vt -2.7629 0.5569 0.0000
vt 3.7919 -0.3744 0.0000
vt -2.7338 -0.3744 0.0000
vt -2.7338 1.4752 0.0000
vt 3.7919 1.4752 0.0000
vt 3.7919 1.3025 0.0000
vt -2.7338 1.3025 0.0000
vt -2.7338 -0.5609 0.0000
vt 3.7919 -0.5609 0.0000
vt 3.7919 -0.2898 0.0000
vt -2.7338 -0.2898 0.0000
vt 4.2573 2.2043 0.0000
vt 4.6717 2.2043 0.0000
vt 4.6717 2.6642 0.0000
vt 4.2574 2.6642 0.0000
vt 3.9736 -0.1033 0.0000
vt 3.9736 1.5609 0.0000
vt 2.9974 2.4758 0.0000
vt 2.9974 2.0159 0.0000
vt 3.2023 2.0159 0.0000
vt 3.2023 2.4758 0.0000
vt -5.0406 -2.5046 0.0000
vt -5.1688 1.9722 0.0000
vt -5.5601 1.9836 0.0000
vt -5.4318 -2.5046 0.0000
vt -5.4319 -3.2242 0.0000
vt -5.0407 -3.2242 0.0000
vt 5.6415 2.2360 0.0000
vt 6.1013 2.2360 0.0000
vt 6.1013 2.5470 0.0000
vt 5.6415 2.5470 0.0000
vt 5.6415 5.5030 0.0000
vt 6.1013 5.5030 0.0000
vt 6.1013 5.9558 0.0000
vt 5.6415 5.9558 0.0000
vt 5.0134 3.9840 0.0000
vt 5.4046 3.9840 0.0000
vt 5.4046 4.7151 0.0000
vt 5.0134 4.7151 0.0000
vt 2.4335 0.7165 0.0000
vt 1.8092 1.1024 0.0000
vt 1.6865 0.9039 0.0000
vt 2.3320 0.5049 0.0000
vt 2.5382 1.1618 0.0000
vt 2.6942 1.1618 0.0000
vt -0.9153 -1.9830 0.0000
vt -0.7927 -2.1815 0.0000
vt -2.1798 -2.2189 0.0000
vt -2.0239 -2.2189 0.0000
vt 1.6695 -0.8765 0.0000
vt 0.8856 -0.3920 0.0000
vt 0.8013 -0.5283 0.0000
vt 1.5853 -1.0128 0.0000
vt -1.8005 -0.5508 0.0000
vt -1.7162 -0.6871 0.0000
vt 2.8763 -0.7851 0.0000
vt 1.0882 -1.8902 0.0000
vt 1.2804 -2.2012 0.0000
vt 3.0685 -1.0961 0.0000
vt -5.4319 -5.6953 0.0000
vt -5.0407 -5.6953 0.0000
vt -4.6352 -1.4338 0.0000
vt -4.8274 -1.7447 0.0000
vt 4.8113 -4.7298 0.0000
vt 4.5798 -4.2471 0.0000
vt 3.1073 -5.1572 0.0000
vt 3.3871 -5.6100 0.0000
vt -2.5284 1.9750 0.0000
vt -2.8083 1.5222 0.0000
vt 5.0134 2.0159 0.0000
vt 5.4046 2.0159 0.0000
vt 4.2574 2.0159 0.0000
vt 4.6717 2.0159 0.0000
vt 5.5648 3.9840 0.0000
vt 5.5648 4.7151 0.0000
vt -5.5920 -2.5046 0.0000
vt -5.5922 -3.2242 0.0000
vt -5.7203 1.9836 0.0000
vt 2.7324 2.0159 0.0000
vt 2.9208 2.0159 0.0000
vt 2.9208 2.2208 0.0000
vt 2.7324 2.2208 0.0000
vt 6.5602 2.0159 0.0000
vt 6.7205 2.0159 0.0000
vt 6.5266 6.5040 0.0000
vt 6.3663 6.5040 0.0000
vt 6.2897 2.2360 0.0000
vt 6.2897 2.5470 0.0000
vt -5.5922 -5.6953 0.0000
vt 5.5648 2.0159 0.0000
vt 6.2897 5.5030 0.0000
vt 6.2897 5.9558 0.0000
vt 2.4680 2.3451 0.0000
vt 2.4680 2.0246 0.0000
vt 2.2771 1.4277 0.0000
vt 2.0955 1.4277 0.0000
vt -1.9536 -1.1356 0.0000
vt -1.9535 -0.8201 0.0000
vt -2.9736 1.5609 0.0000
vt -2.9736 -0.1033 0.0000
vt 1.5171 1.2516 0.0000
vt 1.4345 1.2516 0.0000
vt 1.4345 1.1618 0.0000
vt 1.5171 1.1618 0.0000
vt -2.0098 1.1475 0.0000
vt 2.7946 2.8890 0.0000
vt 2.7946 2.6905 0.0000
vt 2.4680 1.1618 0.0000
vt -1.9536 -2.2189 0.0000
vt 2.7946 1.3946 0.0000
vt 2.7946 1.2583 0.0000
vt 3.7813 2.0159 0.0000
vt 3.9165 2.0995 0.0000
vt 3.7899 2.3044 0.0000
vt 3.6546 2.2208 0.0000
vt 6.5266 6.6909 0.0000
vt 6.3663 6.6909 0.0000
vt 0.7443 -5.4752 0.0000
vt 0.8709 -5.2703 0.0000
vt -5.5602 2.1819 0.0000
vt -5.7205 2.1819 0.0000
vt 1.8310 1.2949 0.0000
vt 1.8903 1.2583 0.0000
vt 1.9458 1.3481 0.0000
vt 1.8865 1.3847 0.0000
vt -2.0099 1.2344 0.0000
vt -2.0801 1.2344 0.0000
vt 0.6976 0.9948 0.0000
vt 0.6421 1.0847 0.0000
vt 3.2212 3.1293 0.0000
vt 3.2212 3.2113 0.0000
vt 3.1510 3.2113 0.0000
vt 3.1510 3.1293 0.0000
vt -2.8992 1.3025 0.0000
vt -2.8992 -0.3391 0.0000
vt -2.9736 1.3025 0.0000
vt -2.9736 -0.3391 0.0000
vt 4.7484 2.0159 0.0000
vt 4.9368 2.0159 0.0000
vt 4.9368 4.7426 0.0000
vt 4.7484 4.7426 0.0000
vt 3.9736 -0.3391 0.0000
vt 3.9736 1.3025 0.0000
vt 2.6654 0.5732 0.0000
vt 2.6886 0.6106 0.0000
vt 2.4567 0.7540 0.0000
vt 2.0595 1.3451 0.0000
vt 2.0595 1.1618 0.0000
vt 3.0605 2.9264 0.0000
vt 2.8772 2.9264 0.0000
vt 1.8323 1.1398 0.0000
vt 2.0595 1.4277 0.0000
vt -0.1452 -1.8330 0.0000
vt 0.0867 -1.6897 0.0000
vt -0.7695 -2.2189 0.0000
vt 2.7946 2.9264 0.0000
vt 4.8640 -4.8152 0.0000
vt 5.3930 -4.4882 0.0000
vt 5.3403 -4.4029 0.0000
vt 4.1754 2.6642 0.0000
vt 4.1754 2.2043 0.0000
vt 3.4399 -5.6953 0.0000
vt 6.1013 6.0412 0.0000
vt 5.6415 6.0412 0.0000
vt -0.5225 0.8533 0.0000
vt -1.0515 1.1802 0.0000
vt 4.1754 2.0159 0.0000
vt 6.2897 6.0412 0.0000
vt -2.4757 2.0604 0.0000
vt 2.5640 0.3616 0.0000
vt 2.5993 0.3440 0.0000
vt 2.7000 0.5540 0.0000
vt 1.9795 1.2906 0.0000
vt 2.0258 1.2887 0.0000
vt 2.0258 1.4447 0.0000
vt 1.9795 1.4466 0.0000
vt 1.9795 1.2204 0.0000
vt 2.0258 1.2185 0.0000
vt 0.0981 -1.6331 0.0000
vt -0.0025 -1.4230 0.0000
vt 2.6942 2.3916 0.0000
vt 2.5382 2.3916 0.0000
vt 2.7222 0.5898 0.0000
vt 0.1204 -1.6689 0.0000
vt 2.4680 2.3916 0.0000
vt 3.9932 2.0202 0.0000
vt 4.0988 2.0159 0.0000
vt 4.0988 2.4071 0.0000
vt 3.9932 2.4114 0.0000
vt 5.1088 -3.9202 0.0000
vt 5.4190 -4.3590 0.0000
vt 5.1895 -3.8799 0.0000
vt -0.7261 0.2450 0.0000
vt -0.4966 0.7241 0.0000
vt 4.0988 2.5673 0.0000
vt 3.9932 2.5716 0.0000
vt 5.4698 -4.4408 0.0000
vt 5.4046 4.8212 0.0000
vt 5.0134 4.8212 0.0000
vt 5.5648 4.8212 0.0000
vt -0.4458 0.8058 0.0000
vt 1.5256 -1.1093 0.0000
vt 1.7540 -1.2503 0.0000
vt 1.8172 -1.1561 0.0000
vt 1.7341 1.3531 0.0000
vt 1.5508 1.3506 0.0000
vt 3.1179 -2.2189 0.0000
vt 3.1846 -2.1271 0.0000
vt 0.7417 -0.6248 0.0000
vt 2.8772 1.1618 0.0000
vt 3.0605 1.1618 0.0000
vt -0.8479 0.1712 0.0000
vt -1.0762 0.0302 0.0000
vt 0.5196 1.1422 0.0000
vt 2.7946 1.1618 0.0000
vt -1.8601 -0.4543 0.0000
vt 0.5824 1.1812 0.0000
vt 1.5171 1.3481 0.0000
vt 1.4345 1.3481 0.0000
vt 1.7678 1.2008 0.0000
vt 1.8307 1.1618 0.0000
vt 6.5246 1.7567 0.0000
vt 6.3724 1.9661 0.0000
vt 3.2612 -0.2434 0.0000
vt 3.4053 -0.4582 0.0000
vt 3.4281 2.0159 0.0000
vt 3.4339 2.4758 0.0000
vt 2.7403 -0.5650 0.0000
vt 5.6415 2.0159 0.0000
vt 6.1013 2.0159 0.0000
vt 0.9522 -1.6701 0.0000
vt -3.1753 -3.0700 0.0000
vt -2.6544 -3.3916 0.0000
vt 0.4649 -5.6064 0.0000
vt -4.9634 -1.9649 0.0000
vt 6.2897 2.0159 0.0000
vt 3.6538 2.5245 0.0000
vt 3.5105 2.4356 0.0000
vt 2.9208 2.4409 0.0000
vt 2.7324 2.4409 0.0000
vt 0.6082 -5.6953 0.0000
vt 3.0942 3.1293 0.0000
vt 3.1792 1.1618 0.0000
vt 3.2360 1.1618 0.0000
vt 2.7279 2.8890 0.0000
vt 2.7279 2.6905 0.0000
vt 2.7279 1.3946 0.0000
vt 2.7279 1.2583 0.0000
vt 3.0942 3.2113 0.0000
vt 1.3678 1.2516 0.0000
vt 1.3678 1.1618 0.0000
vt 2.3775 2.3571 0.0000
vt 2.3108 2.3571 0.0000
vt 2.3108 1.1618 0.0000
vt 2.3775 1.1618 0.0000
vt 2.4112 2.3451 0.0000
vt 2.4112 2.0246 0.0000
vt 2.7279 2.9264 0.0000
vt 2.4112 1.1618 0.0000
vt 2.2771 1.4944 0.0000
vt 2.0955 1.4944 0.0000
vt 1.9795 1.1636 0.0000
vt 2.0258 1.1618 0.0000
vt 2.4112 2.3916 0.0000
vt 2.0595 1.4944 0.0000
vt -1.8969 -1.1356 0.0000
vt -1.8968 -0.8201 0.0000
vt -1.9531 1.1475 0.0000
vt -1.8969 -2.2189 0.0000
vt 2.7279 1.1618 0.0000
vt 1.3678 1.3481 0.0000
vt -1.9532 1.2344 0.0000
# 331 texture coords

o Bench
g Bench
usemtl wire_177028149
s 1
f 1/1/1 2/2/1 3/3/1 
f 3/3/1 4/4/1 1/1/1 
s 2
f 5/5/2 6/6/3 7/7/4 
f 7/7/4 8/8/5 5/5/2 
s 3
f 9/9/6 10/10/7 11/11/7 
f 11/11/7 12/12/8 9/9/6 
s 4
f 13/13/9 14/14/9 15/15/9 
f 15/15/9 16/16/9 13/13/9 
s 5
f 17/17/10 18/18/10 19/19/10 
f 19/19/10 20/20/10 17/17/10 
s 6
f 21/21/11 22/22/11 23/23/11 
f 23/23/11 24/24/11 21/21/11 
f 25/25/11 26/26/11 27/27/11 
f 27/27/11 28/28/11 25/25/11 
s 4
f 29/29/9 30/30/9 31/31/9 
f 31/31/9 32/32/9 29/29/9 
s 5
f 33/33/10 34/34/10 35/35/10 
f 35/35/10 36/36/10 33/33/10 
s 9
f 37/37/12 38/38/13 39/39/14 
f 39/39/14 40/40/12 37/37/12 
s 10
f 41/41/15 37/42/15 40/43/16 
f 40/43/16 42/44/15 41/41/15 
s 5
f 35/35/10 43/45/10 44/46/10 
f 44/46/10 36/36/10 35/35/10 
s 3
f 12/12/8 45/47/17 46/48/18 
f 46/48/18 9/9/6 12/12/8 
s 6
f 27/27/11 26/26/11 47/49/11 
f 47/49/11 48/50/11 27/27/11 
s 11
f 49/51/19 50/52/20 51/53/20 
f 51/53/20 52/54/19 49/51/19 
s 10
f 41/41/15 53/55/15 54/56/15 
f 54/56/15 37/42/15 41/41/15 
s 9
f 37/57/12 54/58/12 55/59/21 
f 55/59/21 38/60/13 37/57/12 
s 12
f 56/41/22 38/42/23 55/56/23 
f 55/56/23 57/55/22 56/41/22 
f 56/41/22 57/55/22 58/61/24 
f 58/61/24 59/62/24 56/41/22 
s 13
f 59/63/9 58/64/9 60/65/25 
f 60/65/25 61/66/25 59/63/9 
f 62/53/26 63/52/26 64/51/26 
f 64/51/26 65/54/26 62/53/26 
s off
f 65/67/1 64/68/1 49/69/1 
f 49/69/1 52/70/1 65/67/1 
s 14
f 66/71/5 67/72/4 68/73/27 
f 68/73/27 69/74/28 66/71/5 
s 10
f 53/55/15 70/75/15 71/76/16 
f 71/76/16 54/56/15 53/55/15 
s 9
f 54/77/12 71/78/12 72/79/29 
f 72/79/29 55/80/21 54/77/12 
s 15
f 73/81/30 74/82/31 75/83/32 
f 75/83/32 76/84/33 73/81/30 
f 73/81/30 76/84/33 77/85/7 
f 77/85/7 78/86/34 73/81/30 
s 16
f 79/87/9 80/88/9 81/89/9 
f 81/89/9 82/90/9 79/87/9 
f 83/91/9 84/92/9 85/93/9 
f 85/93/9 86/94/9 83/91/9 
s 17
f 87/95/35 88/96/1 89/97/1 
f 89/97/1 90/98/35 87/95/35 
s 18
f 65/99/10 14/100/10 13/101/10 
f 13/101/10 62/102/10 65/99/10 
s 1
f 4/4/1 91/103/1 92/104/1 
f 92/104/1 1/1/1 4/4/1 
s 6
f 22/22/11 21/21/11 93/105/11 
f 93/105/11 94/106/11 22/22/11 
s 3
f 10/10/7 95/107/24 96/108/24 
f 96/108/24 11/11/7 10/10/7 
s 18
f 61/109/10 30/110/10 29/111/10 
f 29/111/10 59/112/10 61/109/10 
s 6
f 28/28/11 97/113/11 98/114/11 
f 98/114/11 25/25/11 28/28/11 
s 19
f 58/115/11 79/116/11 82/117/11 
f 82/117/11 60/118/11 58/115/11 
s 15
f 77/85/7 99/119/24 100/120/24 
f 100/120/24 78/86/34 77/85/7 
s 5
f 33/33/10 101/121/10 102/122/10 
f 102/122/10 34/34/10 33/33/10 
s 20
f 64/123/11 63/124/11 83/125/11 
f 83/125/11 86/126/11 64/123/11 
s 5
f 20/20/10 103/127/10 104/128/10 
f 104/128/10 17/17/10 20/20/10 
s 17
f 87/95/35 105/129/35 106/130/1 
f 106/130/1 88/96/1 87/95/35 
s 14
f 66/71/5 107/131/36 108/132/37 
f 108/132/37 67/72/4 66/71/5 
s 17
f 88/96/1 109/133/1 110/134/1 
f 110/134/1 89/97/1 88/96/1 
s 15
f 76/84/33 111/135/38 112/136/39 
f 112/136/39 77/85/7 76/84/33 
f 75/83/32 113/137/40 111/135/38 
f 111/135/38 76/84/33 75/83/32 
s 21
f 114/138/12 115/139/12 116/140/12 
f 116/140/12 117/141/12 114/138/12 
s 10
f 70/142/15 36/143/15 44/144/41 
f 44/144/41 71/145/16 70/142/15 
s 16
f 80/88/9 102/146/9 101/147/9 
f 101/147/9 81/89/9 80/88/9 
s 15
f 77/85/7 112/136/39 118/148/24 
f 118/148/24 99/119/24 77/85/7 
s 17
f 106/130/1 119/149/1 109/133/1 
f 109/133/1 88/96/1 106/130/1 
s 16
f 84/92/9 104/150/9 103/151/9 
f 103/151/9 85/93/9 84/92/9 
s 1
f 3/3/1 120/152/35 121/153/35 
f 121/153/35 4/4/1 3/3/1 
s 2
f 7/7/4 122/154/42 123/155/43 
f 123/155/43 8/8/5 7/7/4 
s 3
f 11/11/7 124/156/44 125/157/8 
f 125/157/8 12/12/8 11/11/7 
s 10
f 40/43/16 126/158/41 127/159/15 
f 127/159/15 42/44/15 40/43/16 
s 22
f 128/160/12 129/161/12 130/162/12 
f 130/162/12 131/163/12 128/160/12 
s 3
f 12/12/8 125/157/8 132/164/45 
f 132/164/45 45/47/17 12/12/8 
s 4
f 15/15/9 133/165/9 134/166/9 
f 134/166/9 16/16/9 15/15/9 
s 1
f 4/4/1 121/153/35 135/167/35 
f 135/167/35 91/103/1 4/4/1 
s 3
f 96/108/24 136/168/24 124/156/44 
f 124/156/44 11/11/7 96/108/24 
s 4
f 31/31/9 137/169/9 138/170/9 
f 138/170/9 32/32/9 31/31/9 
s 23
f 71/171/11 114/172/11 117/173/11 
f 117/173/11 72/174/11 71/171/11 
s 10
f 44/144/41 115/175/1 114/176/1 
f 114/176/1 71/145/16 44/144/41 
s 5
f 43/45/10 116/177/10 115/178/10 
f 115/178/10 44/46/10 43/45/10 
s 15
f 75/83/32 139/179/46 140/180/46 
f 140/180/46 113/137/40 75/83/32 
s 24
f 39/181/10 128/182/10 131/183/10 
f 131/183/10 40/184/10 39/181/10 
s 3
f 132/164/45 141/185/46 142/186/46 
f 142/186/46 45/47/17 132/164/45 
s 6
f 47/49/11 143/187/11 144/188/11 
f 144/188/11 48/50/11 47/49/11 
s 10
f 40/189/16 131/190/1 130/191/1 
f 130/191/1 126/192/41 40/189/16 
s 11
f 51/53/20 41/66/20 42/193/20 
f 42/193/20 145/194/20 51/53/20 
f 145/194/20 42/193/20 127/195/20 
f 127/195/20 146/196/20 145/194/20 
s 6
f 25/25/11 21/21/11 24/24/11 
f 24/24/11 26/26/11 25/25/11 
f 21/21/11 25/25/11 98/114/11 
f 98/114/11 93/105/11 21/21/11 
s 4
f 16/16/9 134/166/9 137/169/9 
f 137/169/9 31/31/9 16/16/9 
f 30/30/9 13/13/9 16/16/9 
f 16/16/9 31/31/9 30/30/9 
s 18
f 62/102/10 13/101/10 30/110/10 
f 30/110/10 61/109/10 62/102/10 
s 13
f 62/53/26 61/66/25 60/65/25 
f 60/65/25 63/52/26 62/53/26 
s 16
f 83/91/9 82/90/9 81/89/9 
f 81/89/9 84/92/9 83/91/9 
f 84/92/9 81/89/9 101/147/9 
f 101/147/9 104/150/9 84/92/9 
s 5
f 17/17/10 104/128/10 101/121/10 
f 101/121/10 33/33/10 17/17/10 
f 18/18/10 17/17/10 33/33/10 
f 33/33/10 36/36/10 18/18/10 
s 11
f 147/197/20 18/198/20 36/199/20 
f 36/199/20 70/200/20 147/197/20 
f 147/201/20 70/202/20 53/65/20 
f 53/65/20 50/52/20 147/201/20 
f 50/52/20 53/65/20 41/66/20 
f 41/66/20 51/53/20 50/52/20 
s 18
f 52/203/10 2/204/10 1/205/10 
f 1/205/10 65/99/10 52/203/10 
s 2
f 8/8/5 148/206/47 149/207/48 
f 149/207/48 5/5/2 8/8/5 
s 4
f 14/14/9 92/208/9 91/209/9 
f 91/209/9 15/15/9 14/14/9 
s 18
f 65/99/10 1/205/10 92/210/10 
f 92/210/10 14/100/10 65/99/10 
s 2
f 123/155/43 150/211/49 148/206/47 
f 148/206/47 8/8/5 123/155/43 
s 6
f 22/22/11 151/212/11 152/213/11 
f 152/213/11 23/23/11 22/22/11 
f 94/106/11 153/214/11 151/212/11 
f 151/212/11 22/22/11 94/106/11 
s 4
f 15/15/9 91/209/9 135/215/9 
f 135/215/9 133/165/9 15/15/9 
s 20
f 64/123/11 87/216/11 90/217/11 
f 90/217/11 49/218/11 64/123/11 
s 14
f 69/74/28 154/219/50 155/220/47 
f 155/220/47 66/71/5 69/74/28 
s 20
f 86/126/11 105/221/11 87/216/11 
f 87/216/11 64/123/11 86/126/11 
s 16
f 85/93/9 106/222/9 105/223/9 
f 105/223/9 86/94/9 85/93/9 
s 5
f 19/19/10 110/224/10 109/225/10 
f 109/225/10 20/20/10 19/19/10 
s 14
f 66/71/5 155/220/47 156/226/51 
f 156/226/51 107/131/36 66/71/5 
s 16
f 103/151/9 119/227/9 106/222/9 
f 106/222/9 85/93/9 103/151/9 
s 5
f 20/20/10 109/225/10 119/228/10 
f 119/228/10 103/127/10 20/20/10 
s 18
f 51/229/10 6/230/10 5/231/10 
f 5/231/10 52/203/10 51/229/10 
s 27
f 145/232/52 7/233/52 6/234/52 
f 6/234/52 51/235/52 145/232/52 
f 146/236/52 122/237/52 7/233/52 
f 7/233/52 145/232/52 146/236/52 
s 6
f 24/24/11 23/23/11 157/238/11 
f 157/238/11 158/239/11 24/24/11 
s 1
f 2/2/1 149/240/1 148/241/1 
f 148/241/1 3/3/1 2/2/1 
s 18
f 2/204/10 52/203/10 5/231/10 
f 5/231/10 149/242/10 2/204/10 
s 6
f 152/213/11 159/243/11 157/238/11 
f 157/238/11 23/23/11 152/213/11 
s 1
f 3/3/1 148/241/1 150/244/1 
f 150/244/1 120/152/35 3/3/1 
s 28
f 50/245/52 68/246/52 67/247/52 
f 67/247/52 147/248/52 50/245/52 
s 20
f 50/249/11 49/218/11 69/250/11 
f 69/250/11 68/251/11 50/249/11 
s 5
f 18/18/10 108/252/10 107/253/10 
f 107/253/10 19/19/10 18/18/10 
s 28
f 147/248/52 67/247/52 108/254/52 
f 108/254/52 18/255/52 147/248/52 
s 20
f 90/217/11 154/256/11 69/250/11 
f 69/250/11 49/218/11 90/217/11 
s 17
f 89/97/1 155/257/1 154/258/1 
f 154/258/1 90/98/35 89/97/1 
f 110/134/1 156/259/1 155/257/1 
f 155/257/1 89/97/1 110/134/1 
s 5
f 110/224/10 19/19/10 107/253/10 
f 107/253/10 156/260/10 110/224/10 
s 18
f 59/112/10 10/261/10 9/262/10 
f 9/262/10 56/263/10 59/112/10 
s 9
f 38/38/13 46/264/53 45/265/53 
f 45/265/53 39/39/14 38/38/13 
s 18
f 56/263/10 9/262/10 46/266/10 
f 46/266/10 38/267/10 56/263/10 
f 29/111/10 95/268/10 10/261/10 
f 10/261/10 59/112/10 29/111/10 
s 4
f 32/32/9 96/269/9 95/270/9 
f 95/270/9 29/29/9 32/32/9 
s 6
f 28/28/11 27/27/11 160/271/11 
f 160/271/11 161/272/11 28/28/11 
f 48/50/11 162/273/11 160/271/11 
f 160/271/11 27/27/11 48/50/11 
s 4
f 138/170/9 136/274/9 96/269/9 
f 96/269/9 32/32/9 138/170/9 
s 6
f 28/28/11 161/272/11 163/275/11 
f 163/275/11 97/113/11 28/28/11 
f 48/50/11 144/188/11 164/276/11 
f 164/276/11 162/273/11 48/50/11 
s 22
f 128/160/12 142/277/12 141/278/12 
f 141/278/12 129/161/12 128/160/12 
s 24
f 39/181/10 45/279/10 142/280/10 
f 142/280/10 128/182/10 39/181/10 
s 19
f 55/281/11 74/282/11 73/283/11 
f 73/283/11 57/284/11 55/281/11 
s 9
f 72/79/29 75/285/54 74/286/54 
f 74/286/54 55/80/21 72/79/29 
s 19
f 58/115/11 57/284/11 73/283/11 
f 73/283/11 78/287/11 58/115/11 
s 16
f 79/87/9 100/288/9 99/289/9 
f 99/289/9 80/88/9 79/87/9 
s 19
f 58/115/11 78/287/11 100/290/11 
f 100/290/11 79/116/11 58/115/11 
s 5
f 34/34/10 112/291/10 111/292/10 
f 111/292/10 35/35/10 34/34/10 
f 35/35/10 111/292/10 113/293/10 
f 113/293/10 43/45/10 35/35/10 
f 102/122/10 118/294/10 112/291/10 
f 112/291/10 34/34/10 102/122/10 
s 16
f 80/88/9 99/289/9 118/295/9 
f 118/295/9 102/146/9 80/88/9 
s 23
f 72/174/11 117/173/11 139/296/11 
f 139/296/11 75/297/11 72/174/11 
s 21
f 116/140/12 140/298/12 139/299/12 
f 139/299/12 117/141/12 116/140/12 
s 5
f 43/45/10 113/293/10 140/300/10 
f 140/300/10 116/177/10 43/45/10 
s off
f 63/124/11 60/118/11 82/117/11 
f 82/117/11 83/125/11 63/124/11 
s 10
f 126/192/41 47/301/41 26/302/15 
f 26/302/15 127/303/15 126/192/41 
s 4
f 133/165/9 94/304/9 93/305/9 
f 93/305/9 134/166/9 133/165/9 
f 137/169/9 98/306/9 97/307/9 
f 97/307/9 138/170/9 137/169/9 
s 10
f 130/191/1 143/308/1 47/301/41 
f 47/301/41 126/192/41 130/191/1 
s 22
f 129/161/12 144/309/12 143/310/12 
f 143/310/12 130/162/12 129/161/12 
s 11
f 127/311/20 26/312/55 24/313/55 
f 24/313/55 146/314/20 127/311/20 
s 4
f 134/166/9 93/305/9 98/306/9 
f 98/306/9 137/169/9 134/166/9 
s 1
f 120/152/35 152/315/1 151/316/1 
f 151/316/1 121/153/35 120/152/35 
s 4
f 135/215/9 153/317/9 94/304/9 
f 94/304/9 133/165/9 135/215/9 
s 1
f 121/153/35 151/316/1 153/318/1 
f 153/318/1 135/167/35 121/153/35 
s 2
f 122/154/42 158/319/56 157/320/57 
f 157/320/57 123/155/43 122/154/42 
s 27
f 146/236/52 24/321/58 158/322/58 
f 158/322/58 122/237/52 146/236/52 
s 1
f 150/244/1 159/323/1 152/315/1 
f 152/315/1 120/152/35 150/244/1 
s 2
f 123/155/43 157/320/57 159/324/59 
f 159/324/59 150/211/49 123/155/43 
s 3
f 124/156/44 161/325/7 160/326/60 
f 160/326/60 125/157/8 124/156/44 
f 125/157/8 160/326/60 162/327/61 
f 162/327/61 132/164/45 125/157/8 
f 136/168/24 163/328/24 161/325/7 
f 161/325/7 124/156/44 136/168/24 
s 4
f 138/170/9 97/307/9 163/329/9 
f 163/329/9 136/274/9 138/170/9 
s 22
f 141/278/12 164/330/12 144/309/12 
f 144/309/12 129/161/12 141/278/12 
s 3
f 132/164/45 162/327/61 164/331/46 
f 164/331/46 141/185/46 132/164/45 
# 324 faces

