# 3ds Max Wavefront OBJ Exporter v0.97b - (c)2007 guruware
# File Created: 25.05.2022 18:45:12

mtllib BrazoIzq.mtl

#
# object EdnaModaFINAL
#

v  1.8000 7.5000 2.0000
v  1.8000 7.4000 1.1000
v  1.8000 7.4000 2.0000
v  1.8000 7.5000 1.1000
v  2.0000 7.4000 2.0000
v  2.0000 7.3000 1.1000
v  2.0000 7.3000 2.0000
v  2.0000 7.4000 1.1000
v  2.1000 7.3000 2.0000
v  2.1000 7.2000 1.1000
v  2.1000 7.2000 2.0000
v  2.1000 7.3000 1.1000
v  2.6000 7.2000 2.0000
v  2.6000 7.1000 1.1000
v  2.6000 7.1000 2.0000
v  2.6000 7.2000 1.1000
v  3.1000 7.1000 2.0000
v  3.1000 7.0000 1.1000
v  3.1000 7.0000 2.0000
v  3.1000 7.1000 1.1000
v  3.5000 7.0000 2.0000
v  3.5000 6.9000 1.1000
v  3.5000 6.9000 2.0000
v  3.5000 7.0000 1.1000
v  3.9000 6.9000 2.0000
v  3.9000 6.8000 1.1000
v  3.9000 6.8000 2.0000
v  3.9000 6.9000 1.1000
v  4.2000 6.8000 2.0000
v  4.2000 6.7000 1.1000
v  4.2000 6.7000 2.0000
v  4.2000 6.8000 1.1000
v  4.7000 6.7000 2.0000
v  4.7000 6.6000 1.1000
v  4.7000 6.6000 2.0000
v  4.7000 6.7000 1.1000
v  4.9000 6.6000 1.9000
v  4.9000 6.2000 1.2000
v  4.9000 6.2000 1.9000
v  4.9000 6.6000 1.2000
v  5.0000 6.2000 1.9000
v  5.0000 6.1000 1.2000
v  5.0000 6.1000 1.9000
v  5.0000 6.2000 1.2000
v  5.5000 6.5000 1.9000
v  5.5000 6.4000 1.2000
v  5.5000 6.4000 1.9000
v  5.5000 6.5000 1.2000
v  5.7000 6.4000 1.9000
v  5.7000 6.2000 1.2000
v  5.7000 6.2000 1.9000
v  5.7000 6.4000 1.2000
v  1.3000 8.5000 2.0000
v  1.3000 8.5000 1.1000
v  1.3000 8.6000 2.0000
v  1.3000 8.6000 1.1000
v  1.6000 8.4000 2.0000
v  1.6000 8.4000 1.1000
v  1.6000 8.5000 2.0000
v  1.6000 8.5000 1.1000
v  2.0000 8.3000 2.0000
v  2.0000 8.3000 1.1000
v  2.0000 8.4000 2.0000
v  2.0000 8.4000 1.1000
v  2.2000 8.2000 2.0000
v  2.2000 8.2000 1.1000
v  2.2000 8.3000 2.0000
v  2.2000 8.3000 1.1000
v  2.4000 8.1000 2.0000
v  2.4000 8.1000 1.1000
v  2.4000 8.2000 2.0000
v  2.4000 8.2000 1.1000
v  2.6000 8.0000 2.0000
v  2.6000 8.0000 1.1000
v  2.6000 8.1000 2.0000
v  2.6000 8.1000 1.1000
v  2.8000 7.9000 2.0000
v  2.8000 7.9000 1.1000
v  2.8000 8.0000 2.0000
v  2.8000 8.0000 1.1000
v  3.0000 7.8000 2.0000
v  3.0000 7.8000 1.1000
v  3.0000 7.9000 2.0000
v  3.0000 7.9000 1.1000
v  3.2000 7.7000 2.0000
v  3.2000 7.7000 1.1000
v  3.2000 7.8000 2.0000
v  3.2000 7.8000 1.1000
v  3.4000 7.6000 2.0000
v  3.4000 7.6000 1.1000
v  3.4000 7.7000 2.0000
v  3.4000 7.7000 1.1000
v  3.6000 7.5000 2.0000
v  3.6000 7.5000 1.1000
v  3.6000 7.6000 2.0000
v  3.6000 7.6000 1.1000
v  3.8000 7.4000 2.0000
v  3.8000 7.4000 1.1000
v  3.8000 7.5000 2.0000
v  3.8000 7.5000 1.1000
v  4.0000 7.3000 2.0000
v  4.0000 7.3000 1.1000
v  4.0000 7.4000 2.0000
v  4.0000 7.4000 1.1000
v  4.2000 7.2000 2.0000
v  4.2000 7.2000 1.1000
v  4.2000 7.3000 2.0000
v  4.2000 7.3000 1.1000
v  4.4000 7.1000 2.0000
v  4.4000 7.1000 1.1000
v  4.4000 7.2000 2.0000
v  4.4000 7.2000 1.1000
v  4.6000 7.0000 2.0000
v  4.6000 7.0000 1.1000
v  4.6000 7.1000 2.0000
v  4.6000 7.1000 1.1000
v  4.8000 6.9000 2.0000
v  4.8000 6.9000 1.1000
v  4.8000 7.0000 2.0000
v  4.8000 7.0000 1.1000
v  4.9000 6.8000 2.0000
v  4.9000 6.8000 1.1000
v  4.9000 6.9000 2.0000
v  4.9000 6.9000 1.1000
v  5.0000 6.6000 2.0000
v  5.0000 6.6000 1.9000
v  5.0000 6.7000 1.8000
v  5.0000 6.6000 1.8000
v  5.0000 6.6000 1.2000
v  5.0000 6.6000 1.1000
v  5.0000 6.7000 1.3000
v  5.0000 6.6000 1.3000
v  5.0000 6.8000 2.0000
v  5.0000 6.8000 1.1000
v  5.1000 6.3000 1.9000
v  5.1000 6.3000 1.2000
v  5.1000 6.5000 1.9000
v  5.1000 6.5000 1.2000
v  5.4000 6.1000 1.9000
v  5.4000 6.1000 1.2000
v  5.4000 6.3000 1.9000
v  5.4000 6.3000 1.2000
v  5.5000 6.6000 1.8000
v  5.5000 6.6000 1.3000
v  5.5000 6.7000 1.8000
v  5.5000 6.7000 1.3000
v  5.8000 6.5000 1.9000
v  5.8000 6.5000 1.2000
v  5.8000 6.6000 1.9000
v  5.8000 6.6000 1.2000
v  5.9000 6.2000 1.9000
v  5.9000 6.2000 1.2000
v  5.9000 6.5000 1.9000
v  5.9000 6.5000 1.2000
v  1.6000 7.5000 2.0000
v  1.4000 7.5000 2.0000
v  1.4000 7.5000 1.1000
v  1.6000 7.5000 1.1000
v  1.6000 7.5000 1.9000
v  1.7000 7.5000 1.9000
v  1.7000 7.5000 1.2000
v  1.6000 7.5000 1.2000
v  1.3000 7.5000 0.9000
v  1.4000 7.5000 0.9000
# 164 vertices

vn -1.0000 0.0000 -0.0000
vn 1.0000 0.0000 -0.0000
vn 0.0000 0.0000 1.0000
vn 0.0000 0.0000 -1.0000
vn 0.0000 -1.0000 -0.0000
vn 0.0000 1.0000 -0.0000
# 6 vertex normals

vt 0.9941 0.5000 0.0000
vt 0.0332 0.5000 0.0000
# 2 texture coords

o EdnaModaFINAL
g EdnaModaFINAL
usemtl palette
s 1
f 1/1/1 2/1/1 3/1/1 
f 4/1/1 2/1/1 1/1/1 
f 5/1/1 6/1/1 7/1/1 
f 8/1/1 6/1/1 5/1/1 
f 9/1/1 10/1/1 11/1/1 
f 12/1/1 10/1/1 9/1/1 
f 13/1/1 14/1/1 15/1/1 
f 16/1/1 14/1/1 13/1/1 
f 17/1/1 18/1/1 19/1/1 
f 20/1/1 18/1/1 17/1/1 
f 21/1/1 22/1/1 23/1/1 
f 24/1/1 22/1/1 21/1/1 
f 25/1/1 26/1/1 27/1/1 
f 28/1/1 26/1/1 25/1/1 
f 29/1/1 30/1/1 31/1/1 
f 32/1/1 30/1/1 29/1/1 
f 33/1/1 34/1/1 35/1/1 
f 36/1/1 34/1/1 33/1/1 
f 37/2/1 38/2/1 39/2/1 
f 40/2/1 38/2/1 37/2/1 
f 41/2/1 42/2/1 43/2/1 
f 44/2/1 42/2/1 41/2/1 
f 45/2/1 46/2/1 47/2/1 
f 48/2/1 46/2/1 45/2/1 
f 49/2/1 50/2/1 51/2/1 
f 52/2/1 50/2/1 49/2/1 
f 53/1/2 54/1/2 55/1/2 
f 55/1/2 54/1/2 56/1/2 
f 57/1/2 58/1/2 59/1/2 
f 59/1/2 58/1/2 60/1/2 
f 61/1/2 62/1/2 63/1/2 
f 63/1/2 62/1/2 64/1/2 
f 65/1/2 66/1/2 67/1/2 
f 67/1/2 66/1/2 68/1/2 
f 69/1/2 70/1/2 71/1/2 
f 71/1/2 70/1/2 72/1/2 
f 73/1/2 74/1/2 75/1/2 
f 75/1/2 74/1/2 76/1/2 
f 77/1/2 78/1/2 79/1/2 
f 79/1/2 78/1/2 80/1/2 
f 81/1/2 82/1/2 83/1/2 
f 83/1/2 82/1/2 84/1/2 
f 85/1/2 86/1/2 87/1/2 
f 87/1/2 86/1/2 88/1/2 
f 89/1/2 90/1/2 91/1/2 
f 91/1/2 90/1/2 92/1/2 
f 93/1/2 94/1/2 95/1/2 
f 95/1/2 94/1/2 96/1/2 
f 97/1/2 98/1/2 99/1/2 
f 99/1/2 98/1/2 100/1/2 
f 101/1/2 102/1/2 103/1/2 
f 103/1/2 102/1/2 104/1/2 
f 105/1/2 106/1/2 107/1/2 
f 107/1/2 106/1/2 108/1/2 
f 109/1/2 110/1/2 111/1/2 
f 111/1/2 110/1/2 112/1/2 
f 113/1/2 114/1/2 115/1/2 
f 115/1/2 114/1/2 116/1/2 
f 117/1/2 118/1/2 119/1/2 
f 119/1/2 118/1/2 120/1/2 
f 121/1/2 122/1/2 123/1/2 
f 123/1/2 122/1/2 124/1/2 
f 125/1/2 126/1/2 127/1/2 
f 126/1/2 128/1/2 127/1/2 
f 129/1/2 130/1/2 131/1/2 
f 132/1/2 129/1/2 131/1/2 
f 125/1/2 127/1/2 133/1/2 
f 127/1/2 131/1/2 133/1/2 
f 131/1/2 130/1/2 134/1/2 
f 133/1/2 131/1/2 134/1/2 
f 135/2/2 136/2/2 137/2/2 
f 137/2/2 136/2/2 138/2/2 
f 139/2/2 140/2/2 141/2/2 
f 141/2/2 140/2/2 142/2/2 
f 143/2/2 144/2/2 145/2/2 
f 145/2/2 144/2/2 146/2/2 
f 147/2/2 148/2/2 149/2/2 
f 149/2/2 148/2/2 150/2/2 
f 151/2/2 152/2/2 153/2/2 
f 153/2/2 152/2/2 154/2/2 
f 155/1/3 53/1/3 156/1/3 
f 57/1/3 53/1/3 155/1/3 
f 59/1/3 53/1/3 57/1/3 
f 1/1/3 57/1/3 155/1/3 
f 5/1/3 1/1/3 3/1/3 
f 61/1/3 57/1/3 1/1/3 
f 61/1/3 1/1/3 5/1/3 
f 63/1/3 57/1/3 61/1/3 
f 9/1/3 5/1/3 7/1/3 
f 9/1/3 61/1/3 5/1/3 
f 65/1/3 9/1/3 11/1/3 
f 65/1/3 61/1/3 9/1/3 
f 67/1/3 61/1/3 65/1/3 
f 69/1/3 65/1/3 11/1/3 
f 71/1/3 65/1/3 69/1/3 
f 13/1/3 69/1/3 11/1/3 
f 73/1/3 69/1/3 13/1/3 
f 75/1/3 69/1/3 73/1/3 
f 77/1/3 13/1/3 15/1/3 
f 77/1/3 73/1/3 13/1/3 
f 79/1/3 73/1/3 77/1/3 
f 81/1/3 77/1/3 15/1/3 
f 83/1/3 77/1/3 81/1/3 
f 17/1/3 81/1/3 15/1/3 
f 85/1/3 81/1/3 17/1/3 
f 85/1/3 17/1/3 19/1/3 
f 87/1/3 81/1/3 85/1/3 
f 89/1/3 85/1/3 19/1/3 
f 91/1/3 85/1/3 89/1/3 
f 21/1/3 89/1/3 19/1/3 
f 93/1/3 89/1/3 21/1/3 
f 93/1/3 21/1/3 23/1/3 
f 95/1/3 89/1/3 93/1/3 
f 97/1/3 93/1/3 23/1/3 
f 99/1/3 93/1/3 97/1/3 
f 25/1/3 97/1/3 23/1/3 
f 101/1/3 97/1/3 25/1/3 
f 101/1/3 25/1/3 27/1/3 
f 103/1/3 97/1/3 101/1/3 
f 29/1/3 101/1/3 27/1/3 
f 105/1/3 101/1/3 29/1/3 
f 107/1/3 101/1/3 105/1/3 
f 109/1/3 29/1/3 31/1/3 
f 109/1/3 105/1/3 29/1/3 
f 111/1/3 105/1/3 109/1/3 
f 113/1/3 109/1/3 31/1/3 
f 115/1/3 109/1/3 113/1/3 
f 33/1/3 113/1/3 31/1/3 
f 117/1/3 113/1/3 33/1/3 
f 117/1/3 33/1/3 35/1/3 
f 119/1/3 113/1/3 117/1/3 
f 121/1/3 117/1/3 35/1/3 
f 123/1/3 117/1/3 121/1/3 
f 125/1/3 121/1/3 35/1/3 
f 133/1/3 121/1/3 125/1/3 
f 41/2/3 37/2/3 39/2/3 
f 126/2/3 37/2/3 41/2/3 
f 135/2/3 41/2/3 43/2/3 
f 135/2/3 126/2/3 41/2/3 
f 137/2/3 126/2/3 135/2/3 
f 139/2/3 135/2/3 43/2/3 
f 141/2/3 135/2/3 139/2/3 
f 45/2/3 126/2/3 137/2/3 
f 49/2/3 45/2/3 47/2/3 
f 147/2/3 126/2/3 45/2/3 
f 147/2/3 49/2/3 51/2/3 
f 147/2/3 45/2/3 49/2/3 
f 149/2/3 126/2/3 147/2/3 
f 151/2/3 147/2/3 51/2/3 
f 153/2/3 147/2/3 151/2/3 
f 143/2/3 127/2/3 128/2/3 
f 145/2/3 127/2/3 143/2/3 
f 132/2/4 131/2/4 144/2/4 
f 144/2/4 131/2/4 146/2/4 
f 38/2/4 40/2/4 44/2/4 
f 44/2/4 40/2/4 129/2/4 
f 42/2/4 44/2/4 136/2/4 
f 44/2/4 129/2/4 136/2/4 
f 136/2/4 129/2/4 138/2/4 
f 42/2/4 136/2/4 140/2/4 
f 140/2/4 136/2/4 142/2/4 
f 138/2/4 129/2/4 48/2/4 
f 46/2/4 48/2/4 52/2/4 
f 48/2/4 129/2/4 148/2/4 
f 50/2/4 52/2/4 148/2/4 
f 52/2/4 48/2/4 148/2/4 
f 148/2/4 129/2/4 150/2/4 
f 50/2/4 148/2/4 152/2/4 
f 152/2/4 148/2/4 154/2/4 
f 157/1/4 54/1/4 158/1/4 
f 158/1/4 54/1/4 58/1/4 
f 58/1/4 54/1/4 60/1/4 
f 158/1/4 58/1/4 4/1/4 
f 2/1/4 4/1/4 8/1/4 
f 4/1/4 58/1/4 62/1/4 
f 8/1/4 4/1/4 62/1/4 
f 62/1/4 58/1/4 64/1/4 
f 6/1/4 8/1/4 12/1/4 
f 8/1/4 62/1/4 12/1/4 
f 10/1/4 12/1/4 66/1/4 
f 12/1/4 62/1/4 66/1/4 
f 66/1/4 62/1/4 68/1/4 
f 10/1/4 66/1/4 70/1/4 
f 70/1/4 66/1/4 72/1/4 
f 10/1/4 70/1/4 16/1/4 
f 16/1/4 70/1/4 74/1/4 
f 74/1/4 70/1/4 76/1/4 
f 14/1/4 16/1/4 78/1/4 
f 16/1/4 74/1/4 78/1/4 
f 78/1/4 74/1/4 80/1/4 
f 14/1/4 78/1/4 82/1/4 
f 82/1/4 78/1/4 84/1/4 
f 14/1/4 82/1/4 20/1/4 
f 20/1/4 82/1/4 86/1/4 
f 18/1/4 20/1/4 86/1/4 
f 86/1/4 82/1/4 88/1/4 
f 18/1/4 86/1/4 90/1/4 
f 90/1/4 86/1/4 92/1/4 
f 18/1/4 90/1/4 24/1/4 
f 24/1/4 90/1/4 94/1/4 
f 22/1/4 24/1/4 94/1/4 
f 94/1/4 90/1/4 96/1/4 
f 22/1/4 94/1/4 98/1/4 
f 98/1/4 94/1/4 100/1/4 
f 22/1/4 98/1/4 28/1/4 
f 28/1/4 98/1/4 102/1/4 
f 26/1/4 28/1/4 102/1/4 
f 102/1/4 98/1/4 104/1/4 
f 26/1/4 102/1/4 32/1/4 
f 32/1/4 102/1/4 106/1/4 
f 106/1/4 102/1/4 108/1/4 
f 30/1/4 32/1/4 110/1/4 
f 32/1/4 106/1/4 110/1/4 
f 110/1/4 106/1/4 112/1/4 
f 30/1/4 110/1/4 114/1/4 
f 114/1/4 110/1/4 116/1/4 
f 30/1/4 114/1/4 36/1/4 
f 36/1/4 114/1/4 118/1/4 
f 34/1/4 36/1/4 118/1/4 
f 118/1/4 114/1/4 120/1/4 
f 34/1/4 118/1/4 122/1/4 
f 122/1/4 118/1/4 124/1/4 
f 34/1/4 122/1/4 130/1/4 
f 130/1/4 122/1/4 134/1/4 
f 42/2/5 139/2/5 43/2/5 
f 140/2/5 139/2/5 42/2/5 
f 38/2/5 41/2/5 39/2/5 
f 44/2/5 41/2/5 38/2/5 
f 50/2/5 151/2/5 51/2/5 
f 152/2/5 151/2/5 50/2/5 
f 46/2/5 49/2/5 47/2/5 
f 52/2/5 49/2/5 46/2/5 
f 138/2/5 45/2/5 137/2/5 
f 48/2/5 45/2/5 138/2/5 
f 37/1/5 125/1/5 35/1/5 
f 126/1/5 125/1/5 37/1/5 
f 40/1/5 37/1/5 35/1/5 
f 34/1/5 40/1/5 35/1/5 
f 34/1/5 129/1/5 40/1/5 
f 130/1/5 129/1/5 34/1/5 
f 30/1/5 33/1/5 31/1/5 
f 36/1/5 33/1/5 30/1/5 
f 26/1/5 29/1/5 27/1/5 
f 32/1/5 29/1/5 26/1/5 
f 22/1/5 25/1/5 23/1/5 
f 28/1/5 25/1/5 22/1/5 
f 18/1/5 21/1/5 19/1/5 
f 24/1/5 21/1/5 18/1/5 
f 14/1/5 17/1/5 15/1/5 
f 20/1/5 17/1/5 14/1/5 
f 10/1/5 13/1/5 11/1/5 
f 16/1/5 13/1/5 10/1/5 
f 6/1/5 9/1/5 7/1/5 
f 12/1/5 9/1/5 6/1/5 
f 2/1/5 5/1/5 3/1/5 
f 8/1/5 5/1/5 2/1/5 
f 159/1/5 1/1/5 155/1/5 
f 160/1/5 1/1/5 159/1/5 
f 161/1/5 1/1/5 160/1/5 
f 158/1/5 161/1/5 162/1/5 
f 4/1/5 1/1/5 161/1/5 
f 4/1/5 161/1/5 158/1/5 
f 135/2/6 141/2/6 136/2/6 
f 136/2/6 141/2/6 142/2/6 
f 147/2/6 153/2/6 148/2/6 
f 148/2/6 153/2/6 154/2/6 
f 126/2/6 149/2/6 128/2/6 
f 128/2/6 149/2/6 143/2/6 
f 143/2/6 149/2/6 144/2/6 
f 132/2/6 144/2/6 129/2/6 
f 144/2/6 149/2/6 150/2/6 
f 129/2/6 144/2/6 150/2/6 
f 127/2/6 145/2/6 131/2/6 
f 131/2/6 145/2/6 146/2/6 
f 121/1/6 133/1/6 122/1/6 
f 122/1/6 133/1/6 134/1/6 
f 117/1/6 123/1/6 118/1/6 
f 118/1/6 123/1/6 124/1/6 
f 113/1/6 119/1/6 114/1/6 
f 114/1/6 119/1/6 120/1/6 
f 109/1/6 115/1/6 110/1/6 
f 110/1/6 115/1/6 116/1/6 
f 105/1/6 111/1/6 106/1/6 
f 106/1/6 111/1/6 112/1/6 
f 101/1/6 107/1/6 102/1/6 
f 102/1/6 107/1/6 108/1/6 
f 97/1/6 103/1/6 98/1/6 
f 98/1/6 103/1/6 104/1/6 
f 93/1/6 99/1/6 94/1/6 
f 94/1/6 99/1/6 100/1/6 
f 163/1/6 157/1/6 164/1/6 
f 89/1/6 95/1/6 90/1/6 
f 90/1/6 95/1/6 96/1/6 
f 85/1/6 91/1/6 86/1/6 
f 86/1/6 91/1/6 92/1/6 
f 81/1/6 87/1/6 82/1/6 
f 82/1/6 87/1/6 88/1/6 
f 77/1/6 83/1/6 78/1/6 
f 78/1/6 83/1/6 84/1/6 
f 73/1/6 79/1/6 74/1/6 
f 74/1/6 79/1/6 80/1/6 
f 69/1/6 75/1/6 70/1/6 
f 70/1/6 75/1/6 76/1/6 
f 65/1/6 71/1/6 66/1/6 
f 66/1/6 71/1/6 72/1/6 
f 61/1/6 67/1/6 62/1/6 
f 62/1/6 67/1/6 68/1/6 
f 57/1/6 63/1/6 58/1/6 
f 58/1/6 63/1/6 64/1/6 
f 53/1/6 59/1/6 54/1/6 
f 54/1/6 59/1/6 60/1/6 
# 0 polygons - 311 triangles

