# 3ds Max Wavefront OBJ Exporter v0.97b - (c)2007 guruware
# File Created: 25.05.2022 18:31:19

mtllib PiernaDer.mtl

#
# object EdnaModaFINAL
#

v  -1.3000 3.2000 1.9000
v  -1.3000 2.8000 1.2000
v  -1.3000 2.8000 1.9000
v  -1.3000 3.2000 1.2000
v  -1.2000 2.8000 1.9000
v  -1.2000 2.5000 1.2000
v  -1.2000 2.5000 1.9000
v  -1.2000 2.8000 1.2000
v  -1.1000 2.5000 1.9000
v  -1.1000 2.2000 1.2000
v  -1.1000 2.2000 1.9000
v  -1.1000 2.5000 1.2000
v  -1.0000 2.2000 1.9000
v  -1.0000 1.9000 1.2000
v  -1.0000 1.9000 1.9000
v  -1.0000 2.2000 1.2000
v  -0.9000 0.4000 2.3000
v  -0.9000 0.1000 1.2000
v  -0.9000 0.1000 2.3000
v  -0.9000 0.4000 1.2000
v  -0.9000 1.7000 1.8000
v  -0.9000 1.6000 1.3000
v  -0.9000 1.6000 1.8000
v  -0.9000 1.7000 1.3000
v  -0.9000 1.9000 1.9000
v  -0.9000 1.7000 1.9000
v  -0.9000 1.7000 1.2000
v  -0.9000 1.9000 1.2000
v  -0.8000 1.6000 1.8000
v  -0.8000 0.4000 1.3000
v  -0.8000 0.4000 1.8000
v  -0.8000 1.6000 1.3000
v  -0.5000 0.4000 1.8000
v  -0.5000 0.4000 1.3000
v  -0.5000 1.6000 1.8000
v  -0.5000 1.6000 1.3000
v  -0.4000 0.1000 2.3000
v  -0.4000 0.1000 1.2000
v  -0.4000 0.4000 2.3000
v  -0.4000 0.4000 1.2000
v  -0.4000 1.6000 1.8000
v  -0.4000 1.6000 1.3000
v  -0.4000 1.7000 1.8000
v  -0.4000 1.7000 1.3000
v  -0.4000 1.7000 1.9000
v  -0.4000 1.9000 1.9000
v  -0.4000 1.7000 1.2000
v  -0.4000 1.9000 1.2000
v  -0.3000 1.9000 1.9000
v  -0.3000 1.9000 1.2000
v  -0.3000 2.2000 1.9000
v  -0.3000 2.2000 1.2000
v  -0.2000 2.2000 1.9000
v  -0.2000 2.2000 1.2000
v  -0.2000 2.5000 1.9000
v  -0.2000 2.5000 1.2000
v  -0.1000 2.5000 1.9000
v  -0.1000 2.5000 1.2000
v  -0.1000 2.8000 1.9000
v  -0.1000 2.8000 1.2000
v  0.0000 2.8000 1.9000
v  0.0000 2.8000 1.2000
v  0.0000 3.2000 1.9000
v  0.0000 3.2000 1.2000
v  -0.8000 0.1000 1.8000
v  -0.5000 0.1000 1.8000
v  -0.8000 0.1000 1.3000
v  -0.5000 0.1000 1.3000
v  -0.8000 3.2000 3.8000
v  -0.4000 3.2000 4.0000
v  -0.8000 3.2000 4.0000
v  -1.0000 3.2000 3.6000
v  -1.0000 3.2000 3.8000
# 73 vertices

vn -1.0000 0.0000 -0.0000
vn 1.0000 0.0000 -0.0000
vn 0.0000 0.0000 1.0000
vn 0.0000 0.0000 -1.0000
vn 0.0000 -1.0000 -0.0000
vn 0.0000 1.0000 -0.0000
# 6 vertex normals

vt 0.9941 0.5000 0.0000
vt 0.9902 0.5000 0.0000
# 2 texture coords

o EdnaModaFINAL
g EdnaModaFINAL
usemtl palette
s 1
f 1/1/1 2/1/1 3/1/1 
f 4/1/1 2/1/1 1/1/1 
f 5/1/1 6/1/1 7/1/1 
f 8/1/1 6/1/1 5/1/1 
f 9/1/1 10/1/1 11/1/1 
f 12/1/1 10/1/1 9/1/1 
f 13/1/1 14/1/1 15/1/1 
f 16/1/1 14/1/1 13/1/1 
f 17/2/1 18/2/1 19/2/1 
f 20/2/1 18/2/1 17/2/1 
f 21/1/1 22/1/1 23/1/1 
f 24/1/1 22/1/1 21/1/1 
f 25/1/1 21/1/1 26/1/1 
f 25/1/1 27/1/1 24/1/1 
f 25/1/1 24/1/1 21/1/1 
f 28/1/1 27/1/1 25/1/1 
f 29/1/1 30/1/1 31/1/1 
f 32/1/1 30/1/1 29/1/1 
f 33/1/2 34/1/2 35/1/2 
f 35/1/2 34/1/2 36/1/2 
f 37/2/2 38/2/2 39/2/2 
f 39/2/2 38/2/2 40/2/2 
f 41/1/2 42/1/2 43/1/2 
f 43/1/2 42/1/2 44/1/2 
f 45/1/2 43/1/2 46/1/2 
f 44/1/2 47/1/2 46/1/2 
f 43/1/2 44/1/2 46/1/2 
f 46/1/2 47/1/2 48/1/2 
f 49/1/2 50/1/2 51/1/2 
f 51/1/2 50/1/2 52/1/2 
f 53/1/2 54/1/2 55/1/2 
f 55/1/2 54/1/2 56/1/2 
f 57/1/2 58/1/2 59/1/2 
f 59/1/2 58/1/2 60/1/2 
f 61/1/2 62/1/2 63/1/2 
f 63/1/2 62/1/2 64/1/2 
f 37/2/3 17/2/3 19/2/3 
f 39/2/3 17/2/3 37/2/3 
f 5/1/3 1/1/3 3/1/3 
f 9/1/3 5/1/3 7/1/3 
f 13/1/3 9/1/3 11/1/3 
f 25/1/3 13/1/3 15/1/3 
f 45/1/3 25/1/3 26/1/3 
f 46/1/3 13/1/3 25/1/3 
f 46/1/3 25/1/3 45/1/3 
f 49/1/3 13/1/3 46/1/3 
f 51/1/3 9/1/3 13/1/3 
f 51/1/3 13/1/3 49/1/3 
f 53/1/3 9/1/3 51/1/3 
f 55/1/3 5/1/3 9/1/3 
f 55/1/3 9/1/3 53/1/3 
f 57/1/3 5/1/3 55/1/3 
f 59/1/3 1/1/3 5/1/3 
f 59/1/3 5/1/3 57/1/3 
f 61/1/3 1/1/3 59/1/3 
f 63/1/3 1/1/3 61/1/3 
f 29/1/3 21/1/3 23/1/3 
f 33/1/3 29/1/3 31/1/3 
f 35/1/3 21/1/3 29/1/3 
f 35/1/3 29/1/3 33/1/3 
f 41/1/3 21/1/3 35/1/3 
f 43/1/3 21/1/3 41/1/3 
f 22/1/4 24/1/4 32/1/4 
f 30/1/4 32/1/4 34/1/4 
f 32/1/4 24/1/4 36/1/4 
f 34/1/4 32/1/4 36/1/4 
f 36/1/4 24/1/4 42/1/4 
f 42/1/4 24/1/4 44/1/4 
f 2/1/4 4/1/4 8/1/4 
f 6/1/4 8/1/4 12/1/4 
f 10/1/4 12/1/4 16/1/4 
f 14/1/4 16/1/4 28/1/4 
f 18/2/4 20/2/4 38/2/4 
f 38/2/4 20/2/4 40/2/4 
f 27/1/4 28/1/4 47/1/4 
f 28/1/4 16/1/4 48/1/4 
f 47/1/4 28/1/4 48/1/4 
f 48/1/4 16/1/4 50/1/4 
f 16/1/4 12/1/4 52/1/4 
f 50/1/4 16/1/4 52/1/4 
f 52/1/4 12/1/4 54/1/4 
f 12/1/4 8/1/4 56/1/4 
f 54/1/4 12/1/4 56/1/4 
f 56/1/4 8/1/4 58/1/4 
f 8/1/4 4/1/4 60/1/4 
f 58/1/4 8/1/4 60/1/4 
f 60/1/4 4/1/4 62/1/4 
f 62/1/4 4/1/4 64/1/4 
f 65/2/5 37/2/5 19/2/5 
f 66/2/5 37/2/5 65/2/5 
f 67/2/5 65/2/5 19/2/5 
f 67/1/5 66/1/5 65/1/5 
f 68/2/5 37/2/5 66/2/5 
f 68/1/5 66/1/5 67/1/5 
f 18/2/5 67/2/5 19/2/5 
f 18/2/5 68/2/5 67/2/5 
f 38/2/5 37/2/5 68/2/5 
f 38/2/5 68/2/5 18/2/5 
f 22/1/5 29/1/5 23/1/5 
f 32/1/5 29/1/5 22/1/5 
f 36/1/5 41/1/5 35/1/5 
f 42/1/5 41/1/5 36/1/5 
f 21/1/5 45/1/5 26/1/5 
f 43/1/5 45/1/5 21/1/5 
f 27/1/5 44/1/5 24/1/5 
f 47/1/5 44/1/5 27/1/5 
f 14/1/5 25/1/5 15/1/5 
f 28/1/5 25/1/5 14/1/5 
f 48/1/5 49/1/5 46/1/5 
f 50/1/5 49/1/5 48/1/5 
f 10/1/5 13/1/5 11/1/5 
f 16/1/5 13/1/5 10/1/5 
f 52/1/5 53/1/5 51/1/5 
f 54/1/5 53/1/5 52/1/5 
f 6/1/5 9/1/5 7/1/5 
f 12/1/5 9/1/5 6/1/5 
f 56/1/5 57/1/5 55/1/5 
f 58/1/5 57/1/5 56/1/5 
f 2/1/5 5/1/5 3/1/5 
f 8/1/5 5/1/5 2/1/5 
f 60/1/5 61/1/5 59/1/5 
f 62/1/5 61/1/5 60/1/5 
f 69/1/5 70/1/5 71/1/5 
f 72/1/5 69/1/5 73/1/5 
f 17/2/6 39/2/6 31/2/6 
f 31/2/6 39/2/6 33/2/6 
f 17/2/6 31/2/6 30/2/6 
f 33/2/6 39/2/6 34/2/6 
f 17/2/6 30/2/6 20/2/6 
f 30/2/6 34/2/6 20/2/6 
f 34/2/6 39/2/6 40/2/6 
f 20/2/6 34/2/6 40/2/6 
# 0 polygons - 132 triangles

