# 3ds Max Wavefront OBJ Exporter v0.97b - (c)2007 guruware
# File Created: 08.05.2022 22:51:54

mtllib Cupula4.mtl

#
# object Icosphere
#

v  2.0337 2.2234 2.8732
v  2.1000 2.1820 2.8380
v  0.0324 1.8561 3.7120
v  0.0734 1.9145 3.7019
v  0.0330 1.8936 3.7870
v  2.1424 2.2261 2.8953
v  0.0608 3.5019 2.2512
v  0.0190 3.5305 2.1818
v  0.0194 3.6018 2.2259
v  -2.1042 2.2234 2.8220
v  -2.0502 2.1820 2.8742
v  -3.5203 1.8561 1.1779
v  -3.4980 1.9145 1.2138
v  -3.5914 1.8936 1.2017
v  -2.0916 2.2261 2.9323
v  -2.1222 3.5019 0.7534
v  -2.0692 3.5305 0.6923
v  -2.1110 3.6018 0.7063
v  -3.3341 2.2234 -1.1291
v  -3.3671 2.1820 -1.0616
v  -2.2081 1.8561 -2.9840
v  -2.2353 1.9145 -2.9517
v  -2.2527 1.8936 -3.0443
v  -3.4351 2.2261 -1.0831
v  -1.3724 3.5019 -1.7855
v  -1.2979 3.5305 -1.7540
v  -1.3241 3.6018 -1.7894
v  0.0436 2.2234 -3.5198
v  -0.0308 2.1820 -3.5303
v  2.1556 1.8561 -3.0221
v  2.1165 1.9145 -3.0380
v  2.1992 1.8936 -3.0832
v  -0.0315 2.2261 -3.6016
v  1.2740 3.5019 -1.8570
v  1.2670 3.5305 -1.7764
v  1.2926 3.6018 -1.8122
v  3.3610 2.2234 -1.0462
v  3.3480 2.1820 -1.1202
v  3.5403 1.8561 1.1163
v  3.5434 1.9145 1.0741
v  3.6119 1.8936 1.1388
v  3.4157 2.2261 -1.1429
v  2.1598 3.5019 0.6379
v  2.0810 3.5305 0.6561
v  2.1230 3.6018 0.6694
v  4.1631 0.0416 0.0377
v  4.1512 -0.0093 -0.0356
v  3.3801 -0.0093 2.4102
v  3.4319 0.0416 2.3570
v  3.4459 0.0093 2.4587
v  4.2330 0.0093 -0.0376
v  3.5850 1.8013 1.1303
v  1.2506 0.0416 3.9710
v  1.3166 -0.0093 3.9371
v  -1.2477 -0.0093 3.9594
v  -1.1811 0.0416 3.9923
v  -1.2735 0.0093 4.0370
v  1.3438 0.0093 4.0142
v  0.0328 1.8013 3.7588
v  -3.3902 0.0416 2.4165
v  -3.3375 -0.0093 2.4688
v  -4.1512 -0.0093 0.0369
v  -4.1618 0.0416 0.1103
v  -4.2330 0.0093 0.0363
v  -3.4024 0.0093 2.5185
v  -3.5647 1.8013 1.1927
v  -3.3459 0.0416 -2.4775
v  -3.3793 -0.0093 -2.4112
v  -1.3179 -0.0093 -3.9366
v  -1.3910 0.0416 -3.9240
v  -1.3426 0.0093 -4.0146
v  -3.4466 0.0093 -2.4576
v  -2.2359 1.8013 -3.0217
v  1.3223 0.0416 -3.9477
v  1.2490 -0.0093 -3.9590
v  3.3367 -0.0093 -2.4699
v  3.3021 0.0416 -2.5356
v  3.4032 0.0093 -2.5174
v  1.2723 0.0093 -4.0374
v  2.1828 1.8013 -3.0602
v  2.0594 2.1535 2.9080
v  1.3170 0.0848 3.9488
v  0.0991 1.8445 3.7366
v  3.3499 0.0412 2.4713
v  1.3839 0.0412 3.9261
v  2.1306 2.1217 2.8793
v  3.3913 0.0848 2.4139
v  3.5444 1.8445 1.1873
v  2.1788 2.1535 2.8196
v  -2.1293 2.1535 2.8572
v  -3.3486 0.0848 2.4728
v  -3.5231 1.8445 1.2490
v  -1.3152 0.0412 3.9496
v  -3.3063 0.0412 2.5294
v  -2.0800 2.1217 2.9160
v  -1.2478 0.0848 3.9712
v  -0.0339 1.8445 3.7378
v  -2.0083 2.1535 2.9435
v  -3.3753 2.1535 -1.1422
v  -3.3865 0.0848 -2.4206
v  -2.2766 1.8445 -2.9647
v  -4.1628 0.0412 -0.0303
v  -3.4273 0.0412 -2.3628
v  -3.4161 2.1217 -1.0771
v  -4.1625 0.0848 0.0404
v  -3.5653 1.8445 1.1228
v  -3.4200 2.1535 -1.0004
v  0.0432 2.1535 -3.5631
v  1.2556 0.0848 -3.9688
v  2.1161 1.8445 -3.0813
v  -1.2575 0.0412 -3.9684
v  1.1881 0.0412 -3.9897
v  -0.0313 2.1217 -3.5817
v  -1.3247 0.0848 -3.9462
v  -2.1696 1.8445 -3.0439
v  -0.1054 2.1535 -3.5618
v  3.4020 2.1535 -1.0599
v  4.1625 0.0848 -0.0322
v  3.5844 1.8445 1.0604
v  3.3855 0.0412 -2.4223
v  4.1616 0.0412 -0.1029
v  3.3968 2.1217 -1.1365
v  3.3437 0.0848 -2.4793
v  2.2244 1.8445 -3.0040
v  3.3549 2.1535 -1.2009
v  2.0145 3.5800 0.6783
v  0.0597 3.5800 2.1248
v  0.0416 4.1677 0.0562
v  0.0000 4.1503 -0.0000
v  0.0000 4.2342 -0.0000
v  2.0816 2.2549 2.8131
v  0.0974 3.5407 2.1875
v  2.0634 3.5407 0.7327
v  2.1531 2.2234 2.7848
v  3.5187 1.9145 1.1525
v  2.1351 3.5019 0.7163
v  -0.0226 3.5800 2.1255
v  -2.0023 3.5800 0.7133
v  -0.0406 4.1677 0.0570
v  -2.0322 2.2549 2.8490
v  -2.0503 3.5407 0.7686
v  -0.0592 3.5407 2.1888
v  -1.9832 2.2234 2.9083
v  -0.0088 1.9145 3.7026
v  -0.0215 3.5019 2.2519
v  -2.0284 3.5800 0.6353
v  -1.2972 3.5800 -1.6839
v  -0.0667 4.1677 -0.0210
v  -3.3375 2.2549 -1.0523
v  -1.3646 3.5407 -1.7124
v  -2.1000 3.5407 0.6201
v  -3.3788 2.2234 -0.9874
v  -3.5241 1.9145 1.1358
v  -2.1483 3.5019 0.6754
v  -1.2311 3.5800 -1.7328
v  1.2006 3.5800 -1.7540
v  -0.0006 4.1677 -0.0700
v  -0.0306 2.2549 -3.4994
v  1.2069 3.5407 -1.8270
v  -1.2387 3.5407 -1.8056
v  -0.1050 2.2234 -3.5185
v  -2.1692 1.9145 -3.0006
v  -1.3063 3.5019 -1.8344
v  1.2676 3.5800 -1.7063
v  2.0392 3.5800 0.5998
v  0.0663 4.1677 -0.0222
v  3.3187 2.2549 -1.1104
v  2.1105 3.5407 0.5833
v  1.3345 3.5407 -1.7360
v  3.3139 2.2234 -1.1872
v  2.1834 1.9145 -2.9903
v  1.3410 3.5019 -1.8092
# 172 vertices

vn -0.9159 0.3428 0.2089
vn -0.5061 -0.5255 -0.6839
vn -0.0078 -0.4470 -0.8945
vn 0.5780 0.6553 -0.4864
vn 0.0078 0.4472 0.8944
vn 0.5059 0.5258 0.6838
vn 0.4955 -0.5718 0.6539
vn -0.0046 -0.8507 -0.5257
vn 0.0046 0.8507 0.5257
vn -0.4817 0.3428 -0.8065
vn 0.4941 -0.5255 -0.6926
vn 0.8483 -0.4470 -0.2838
vn 0.6411 0.6553 0.3994
vn -0.8482 0.4472 0.2838
vn -0.4939 0.5258 0.6925
vn -0.4688 -0.5718 0.6733
vn 0.4986 -0.8507 -0.1668
vn -0.4986 0.8507 0.1668
vn 0.6182 0.3428 -0.7073
vn 0.8114 -0.5255 0.2558
vn 0.5321 -0.4470 0.7191
vn -0.1817 0.6553 0.7332
vn -0.5320 0.4472 -0.7190
vn -0.8112 0.5258 -0.2558
vn -0.7852 -0.5718 -0.2378
vn 0.3127 -0.8507 0.4226
vn -0.3127 0.8507 -0.4226
vn 0.8637 0.3428 0.3694
vn 0.0074 -0.5255 0.8507
vn -0.5195 -0.4470 0.7283
vn -0.7535 0.6553 0.0538
vn 0.5194 0.4472 -0.7282
vn -0.0074 0.5258 -0.8506
vn -0.0165 -0.5718 -0.8202
vn -0.3053 -0.8507 0.4280
vn 0.3053 0.8507 -0.4280
vn -0.0844 0.3428 0.9356
vn -0.8068 -0.5255 0.2700
vn -0.8531 -0.4470 -0.2690
vn -0.2839 0.6553 -0.7000
vn 0.8530 0.4472 0.2690
vn 0.8066 0.5258 -0.2699
vn 0.7750 -0.5718 -0.2691
vn -0.5014 -0.8507 -0.1581
vn 0.5014 0.8507 0.1581
vn -0.1835 0.4609 0.8682
vn -0.9949 0.1005 0.0126
vn -0.8077 0.1005 -0.5809
vn 0.3477 0.4609 -0.8165
vn 0.6862 0.5119 0.5168
vn 0.8585 0.5119 -0.0298
vn 0.3052 -0.9474 0.0962
vn -0.8825 0.4609 0.0937
vn -0.3194 0.1005 -0.9423
vn 0.3029 0.1005 -0.9477
vn 0.8840 0.4609 0.0784
vn -0.2795 0.5119 0.8123
vn 0.2936 0.5119 0.8073
vn 0.0028 -0.9474 0.3200
vn -0.3619 0.4609 -0.8103
vn 0.7975 0.1005 -0.5949
vn 0.9949 0.1005 -0.0048
vn 0.1986 0.4609 0.8649
vn -0.8589 0.5119 -0.0148
vn -0.6771 0.5119 0.5287
vn -0.3035 -0.9474 0.1015
vn 0.6588 0.4609 -0.5946
vn 0.8122 0.1005 0.5746
vn 0.3120 0.1005 0.9447
vn -0.7612 0.4609 0.4562
vn -0.2514 0.5119 -0.8214
vn -0.7121 0.5119 -0.4805
vn -0.1904 -0.9474 -0.2572
vn 0.7690 0.4609 0.4428
vn -0.2955 0.1005 0.9501
vn -0.8021 0.1005 0.5887
vn -0.6691 0.4609 -0.5829
vn 0.7036 0.5119 -0.4929
vn 0.2370 0.5119 -0.8257
vn 0.1859 -0.9474 -0.2606
vn -0.6096 -0.4904 0.6228
vn -0.1252 0.9632 -0.2378
vn 0.9421 -0.3352 0.0058
vn -0.6673 0.5020 0.5502
vn 0.7212 0.5020 -0.4773
vn 0.2322 -0.9207 0.3138
vn -0.1908 0.9632 -0.1892
vn -0.2700 -0.3352 0.9026
vn 0.7738 -0.4904 -0.4009
vn -0.7807 -0.4904 -0.3873
vn 0.1875 0.9632 -0.1925
vn 0.2857 -0.3352 0.8978
vn -0.7294 0.5020 -0.4646
vn 0.6768 0.5020 0.5384
vn -0.2267 -0.9207 0.3178
vn 0.1210 0.9632 -0.2400
vn -0.9419 -0.3352 0.0222
vn 0.6204 -0.4904 0.6121
vn 0.1271 -0.4904 -0.8622
vn 0.2411 0.9632 0.1188
vn -0.7656 -0.3352 0.5491
vn 0.2165 0.5020 -0.8373
vn -0.3029 0.5020 0.8101
vn -0.3723 -0.9207 -0.1174
vn 0.2656 0.9632 0.0409
vn -0.3121 -0.3352 -0.8889
vn -0.3904 -0.4904 0.7792
vn 0.8593 -0.4904 -0.1456
vn -0.0385 0.9632 0.2660
vn -0.7588 -0.3352 -0.5584
vn 0.8632 0.5020 -0.0528
vn -0.8640 0.5020 -0.0378
vn -0.0034 -0.9207 -0.3904
vn 0.0432 0.9632 0.2653
vn 0.7490 -0.3352 -0.5716
vn -0.8617 -0.4904 -0.1305
vn 0.4040 -0.4904 0.7722
vn -0.2649 0.9632 0.0455
vn 0.2966 -0.3352 -0.8942
vn 0.3170 0.5020 0.8047
vn -0.2311 0.5020 -0.8334
vn 0.3702 -0.9207 -0.1239
vn -0.2390 0.9632 0.1230
vn 0.7750 -0.3352 0.5357
vn -0.1421 -0.4904 -0.8598
vn -0.9158 0.3330 0.2248
vn 0.4827 0.3329 -0.8100
vn 0.5892 -0.1374 0.7962
vn 0.0000 -1.0000 0.0000
vn 0.0000 1.0000 0.0000
vn -0.3860 0.7609 -0.5216
vn 0.9877 -0.1293 -0.0885
vn -0.3734 -0.1292 0.9186
vn 0.4675 0.3428 -0.8148
vn -0.6341 0.6553 0.4105
vn 0.4805 -0.5718 0.6650
vn -0.4967 0.3330 -0.8015
vn 0.9195 0.3330 0.2087
vn -0.5752 -0.1374 0.8064
vn 0.3768 0.7609 -0.5283
vn 0.3894 -0.1293 0.9120
vn -0.9890 -0.1293 -0.0713
vn 0.9194 0.3428 0.1929
vn -0.5864 0.6553 -0.4762
vn -0.4840 -0.5718 0.6624
vn 0.6088 0.3329 -0.7201
vn 0.0856 0.3329 0.9390
vn -0.9447 -0.1374 -0.2979
vn 0.6188 0.7609 0.1951
vn -0.7470 -0.1293 0.6521
vn -0.2379 -0.1293 -0.9627
vn 0.1007 0.3428 0.9340
vn 0.2717 0.6553 -0.7048
vn -0.7796 -0.5718 -0.2556
vn 0.8730 0.3330 0.3564
vn -0.8666 0.3330 0.3716
vn -0.0087 -0.1374 -0.9905
vn 0.0057 0.7609 0.6489
vn -0.8511 -0.1293 -0.5089
vn 0.8420 -0.1293 -0.5237
vn -0.8572 0.3428 0.3844
vn 0.7543 0.6553 0.0406
vn 0.0022 -0.5718 -0.8204
vn -0.0692 0.3329 0.9404
vn -0.6212 0.3330 -0.7094
vn 0.9393 -0.1374 -0.3143
vn -0.6153 0.7609 0.2059
vn 0.2210 -0.1292 -0.9667
vn 0.7583 -0.1293 0.6390
vn -0.6305 0.3428 -0.6964
vn 0.1945 0.6553 0.7299
vn 0.7809 -0.5718 -0.2514
# 172 vertex normals

vt 0.3409 0.2466 0.0000
vt 0.3427 0.2415 0.0000
vt 0.2144 0.3634 0.0000
vt 0.2186 0.3624 0.0000
vt 0.2145 0.3634 0.0000
vt 0.3427 0.2416 0.0000
vt 0.3652 0.4085 0.0000
vt 0.3684 0.4122 0.0000
vt 0.2486 0.5385 0.0000
vt 0.2442 0.5353 0.0000
vt 0.3249 0.6910 0.0000
vt 0.3252 0.6869 0.0000
vt 0.3250 0.6909 0.0000
vt 0.2443 0.5353 0.0000
vt 0.4143 0.5652 0.0000
vt 0.4188 0.5634 0.0000
vt 0.5045 0.7134 0.0000
vt 0.5001 0.7164 0.0000
vt 0.6750 0.6909 0.0000
vt 0.6711 0.6894 0.0000
vt 0.6750 0.6908 0.0000
vt 0.5815 0.5682 0.0000
vt 0.5812 0.5633 0.0000
vt 0.7541 0.5300 0.0000
vt 0.7557 0.5352 0.0000
vt 0.7856 0.3632 0.0000
vt 0.7829 0.3664 0.0000
vt 0.7855 0.3632 0.0000
vt 0.7556 0.5351 0.0000
vt 0.6364 0.4133 0.0000
vt 0.6316 0.4121 0.0000
vt 0.6518 0.2413 0.0000
vt 0.6573 0.2414 0.0000
vt 0.4999 0.1613 0.0000
vt 0.5022 0.1648 0.0000
vt 0.6572 0.2415 0.0000
vt 0.5026 0.3146 0.0000
vt 0.5000 0.3188 0.0000
vt 0.5000 0.3187 0.0000
vt 0.6403 0.0047 0.0000
vt 0.6472 0.0045 0.0000
vt 0.3524 0.0045 0.0000
vt 0.3593 0.0047 0.0000
vt 0.3510 0.0001 0.0000
vt 0.6486 0.0001 0.0000
vt 0.4999 0.1566 0.0000
vt 0.1098 0.1821 0.0000
vt 0.1120 0.1757 0.0000
vt 0.0099 0.4539 0.0000
vt 0.0100 0.4474 0.0000
vt 0.0001 0.4539 0.0000
vt 0.1083 0.1728 0.0000
vt 0.2098 0.3619 0.0000
vt 0.1174 0.7368 0.0000
vt 0.1116 0.7329 0.0000
vt 0.3526 0.9034 0.0000
vt 0.3470 0.8993 0.0000
vt 0.3512 0.9078 0.0000
vt 0.1080 0.7358 0.0000
vt 0.3222 0.6948 0.0000
vt 0.6533 0.8993 0.0000
vt 0.6478 0.9034 0.0000
vt 0.8878 0.7325 0.0000
vt 0.8821 0.7365 0.0000
vt 0.8915 0.7354 0.0000
vt 0.6492 0.9078 0.0000
vt 0.6778 0.6947 0.0000
vt 0.9900 0.4472 0.0000
vt 0.9901 0.4537 0.0000
vt 0.8885 0.1753 0.0000
vt 0.8907 0.1818 0.0000
vt 0.8922 0.1724 0.0000
vt 0.9999 0.4537 0.0000
vt 0.7903 0.3617 0.0000
vt 0.3366 0.2427 0.0000
vt 0.1158 0.1787 0.0000
vt 0.2149 0.3588 0.0000
vt 0.3477 0.0081 0.0000
vt 0.1170 0.1723 0.0000
vt 0.3393 0.2369 0.0000
vt 0.3542 0.0090 0.0000
vt 0.4954 0.1602 0.0000
vt 0.3457 0.2362 0.0000
vt 0.2436 0.5414 0.0000
vt 0.1158 0.7304 0.0000
vt 0.3206 0.6893 0.0000
vt 0.0098 0.4595 0.0000
vt 0.1098 0.7272 0.0000
vt 0.2386 0.5371 0.0000
vt 0.0126 0.4536 0.0000
vt 0.2119 0.3673 0.0000
vt 0.2398 0.5308 0.0000
vt 0.5057 0.7190 0.0000
vt 0.6466 0.8987 0.0000
vt 0.6720 0.6944 0.0000
vt 0.3586 0.9032 0.0000
vt 0.6418 0.9032 0.0000
vt 0.5001 0.7222 0.0000
vt 0.3538 0.8987 0.0000
vt 0.3280 0.6945 0.0000
vt 0.4944 0.7190 0.0000
vt 0.7601 0.5307 0.0000
vt 0.9874 0.4534 0.0000
vt 0.7882 0.3671 0.0000
vt 0.8897 0.7269 0.0000
vt 0.9902 0.4593 0.0000
vt 0.7613 0.5369 0.0000
vt 0.8837 0.7300 0.0000
vt 0.6793 0.6892 0.0000
vt 0.7564 0.5412 0.0000
vt 0.6542 0.2361 0.0000
vt 0.6454 0.0090 0.0000
vt 0.5044 0.1602 0.0000
vt 0.8834 0.1719 0.0000
vt 0.6519 0.0081 0.0000
vt 0.6606 0.2368 0.0000
vt 0.8847 0.1783 0.0000
vt 0.7852 0.3587 0.0000
vt 0.6634 0.2426 0.0000
vt 0.4978 0.3227 0.0000
vt 0.3729 0.4114 0.0000
vt 0.4981 0.4514 0.0000
vt 0.5000 0.4540 0.0000
vt 0.3454 0.2452 0.0000
vt 0.3700 0.4082 0.0000
vt 0.4956 0.3190 0.0000
vt 0.3481 0.2414 0.0000
vt 0.4976 0.1648 0.0000
vt 0.4974 0.3146 0.0000
vt 0.3716 0.4154 0.0000
vt 0.4195 0.5589 0.0000
vt 0.4969 0.4550 0.0000
vt 0.2487 0.5339 0.0000
vt 0.4155 0.5607 0.0000
vt 0.3673 0.4163 0.0000
vt 0.2458 0.5302 0.0000
vt 0.2172 0.3666 0.0000
vt 0.3635 0.4133 0.0000
vt 0.4230 0.5614 0.0000
vt 0.5770 0.5614 0.0000
vt 0.5000 0.4572 0.0000
vt 0.5001 0.7118 0.0000
vt 0.5775 0.5656 0.0000
vt 0.4225 0.5657 0.0000
vt 0.4956 0.7134 0.0000
vt 0.3289 0.6895 0.0000
vt 0.4185 0.5682 0.0000
vt 0.5805 0.5589 0.0000
vt 0.6284 0.4154 0.0000
vt 0.5031 0.4549 0.0000
vt 0.7512 0.5337 0.0000
vt 0.6327 0.4162 0.0000
vt 0.5845 0.5606 0.0000
vt 0.7513 0.5384 0.0000
vt 0.6748 0.6868 0.0000
vt 0.5857 0.5652 0.0000
vt 0.6271 0.4113 0.0000
vt 0.5021 0.3227 0.0000
vt 0.5019 0.4514 0.0000
vt 0.6545 0.2452 0.0000
vt 0.5043 0.3190 0.0000
vt 0.6300 0.4082 0.0000
vt 0.6591 0.2465 0.0000
vt 0.7815 0.3622 0.0000
vt 0.6348 0.4084 0.0000
# 165 texture coords

o Icosphere
g Icosphere
usemtl Standard_17
s off
f 1/1/1 2/2/2 3/3/3 4/4/4 
f 1/1/1 4/4/4 5/5/5 6/6/6 
f 7/7/7 8/8/8 2/2/2 1/1/1 
f 1/1/1 6/6/6 9/8/9 7/7/7 
f 7/7/7 4/4/4 3/3/3 8/8/8 
f 7/7/7 9/8/9 5/5/5 4/4/4 
f 10/9/10 11/10/11 12/11/12 13/12/13 
f 10/9/10 13/12/13 14/13/14 15/14/15 
f 16/15/16 17/16/17 11/10/11 10/9/10 
f 10/9/10 15/14/15 18/16/18 16/15/16 
f 16/15/16 13/12/13 12/11/12 17/16/17 
f 16/15/16 18/16/18 14/13/14 13/12/13 
f 19/17/19 20/18/20 21/19/21 22/20/22 
f 19/17/19 22/20/22 23/21/23 24/18/24 
f 25/22/25 26/23/26 20/18/20 19/17/19 
f 19/17/19 24/18/24 27/23/27 25/22/25 
f 25/22/25 22/20/22 21/19/21 26/23/26 
f 25/22/25 27/23/27 23/21/23 22/20/22 
f 28/24/28 29/25/29 30/26/30 31/27/31 
f 28/24/28 31/27/31 32/28/32 33/29/33 
f 34/30/34 35/31/35 29/25/29 28/24/28 
f 28/24/28 33/29/33 36/31/36 34/30/34 
f 34/30/34 31/27/31 30/26/30 35/31/35 
f 34/30/34 36/31/36 32/28/32 31/27/31 
f 37/32/37 38/33/38 39/34/39 40/35/40 
f 37/32/37 40/35/40 41/34/41 42/36/42 
f 43/37/43 44/38/44 38/33/38 37/32/37 
f 37/32/37 42/36/42 45/39/45 43/37/43 
f 43/37/43 40/35/40 39/34/39 44/38/44 
f 43/37/43 45/39/45 41/34/41 40/35/40 
f 46/40/46 47/41/47 48/42/48 49/43/49 
f 49/43/49 50/44/50 51/45/51 46/40/46 
f 46/40/46 52/46/52 39/34/39 47/41/47 
f 46/40/46 51/45/51 41/34/41 52/46/52 
f 49/43/49 48/42/48 39/34/39 52/46/52 
f 52/46/52 41/34/41 50/44/50 49/43/49 
f 53/47/53 54/48/54 55/49/55 56/50/56 
f 56/50/56 57/51/57 58/52/58 53/47/53 
f 53/47/53 59/53/59 3/3/3 54/48/54 
f 53/47/53 58/52/58 5/5/5 59/53/59 
f 56/50/56 55/49/55 3/3/3 59/53/59 
f 59/53/59 5/5/5 57/51/57 56/50/56 
f 60/54/60 61/55/61 62/56/62 63/57/63 
f 63/57/63 64/58/64 65/59/65 60/54/60 
f 60/54/60 66/60/66 12/11/12 61/55/61 
f 60/54/60 65/59/65 14/13/14 66/60/66 
f 63/57/63 62/56/62 12/11/12 66/60/66 
f 66/60/66 14/13/14 64/58/64 63/57/63 
f 67/61/67 68/62/68 69/63/69 70/64/70 
f 70/64/70 71/65/71 72/66/72 67/61/67 
f 67/61/67 73/67/73 21/19/21 68/62/68 
f 67/61/67 72/66/72 23/21/23 73/67/73 
f 70/64/70 69/63/69 21/19/21 73/67/73 
f 73/67/73 23/21/23 71/65/71 70/64/70 
f 74/68/74 75/69/75 76/70/76 77/71/77 
f 77/71/77 78/72/78 79/73/79 74/68/74 
f 74/68/74 80/74/80 30/26/30 75/69/75 
f 74/68/74 79/73/79 32/28/32 80/74/80 
f 77/71/77 76/70/76 30/26/30 80/74/80 
f 80/74/80 32/28/32 78/72/78 77/71/77 
f 81/75/81 2/2/2 54/48/54 82/76/82 
f 82/76/82 58/52/58 6/6/6 81/75/81 
f 81/75/81 83/77/83 3/3/3 2/2/2 
f 81/75/81 6/6/6 5/5/5 83/77/83 
f 82/76/82 54/48/54 3/3/3 83/77/83 
f 83/77/83 5/5/5 58/52/58 82/76/82 
f 84/78/84 48/42/48 54/48/54 85/79/85 
f 85/79/85 58/52/58 50/44/50 84/78/84 
f 86/80/86 2/2/2 48/42/48 84/78/84 
f 84/78/84 50/44/50 6/6/6 86/80/86 
f 85/79/85 54/48/54 2/2/2 86/80/86 
f 86/80/86 6/6/6 58/52/58 85/79/85 
f 87/81/87 88/82/88 39/34/39 48/42/48 
f 87/81/87 50/44/50 41/34/41 88/82/88 
f 89/83/89 2/2/2 39/34/39 88/82/88 
f 89/83/89 88/82/88 41/34/41 6/6/6 
f 87/81/87 48/42/48 2/2/2 89/83/89 
f 89/83/89 6/6/6 50/44/50 87/81/87 
f 90/84/90 11/10/11 61/55/61 91/85/91 
f 91/85/91 65/59/65 15/14/15 90/84/90 
f 90/84/90 92/86/92 12/11/12 11/10/11 
f 90/84/90 15/14/15 14/13/14 92/86/92 
f 91/85/91 61/55/61 12/11/12 92/86/92 
f 92/86/92 14/13/14 65/59/65 91/85/91 
f 93/87/93 55/49/55 61/55/61 94/88/94 
f 94/88/94 65/59/65 57/51/57 93/87/93 
f 95/89/95 11/10/11 55/49/55 93/87/93 
f 93/87/93 57/51/57 15/14/15 95/89/95 
f 94/88/94 61/55/61 11/10/11 95/89/95 
f 95/89/95 15/14/15 65/59/65 94/88/94 
f 96/90/96 97/91/97 3/3/3 55/49/55 
f 96/90/96 57/51/57 5/5/5 97/91/97 
f 98/92/98 11/10/11 3/3/3 97/91/97 
f 98/92/98 97/91/97 5/5/5 15/14/15 
f 96/90/96 55/49/55 11/10/11 98/92/98 
f 98/92/98 15/14/15 57/51/57 96/90/96 
f 99/93/99 20/18/20 68/62/68 100/94/100 
f 100/94/100 72/66/72 24/18/24 99/93/99 
f 99/93/99 101/95/101 21/19/21 20/18/20 
f 99/93/99 24/18/24 23/21/23 101/95/101 
f 100/94/100 68/62/68 21/19/21 101/95/101 
f 101/95/101 23/21/23 72/66/72 100/94/100 
f 102/96/102 62/56/62 68/62/68 103/97/103 
f 103/97/103 72/66/72 64/58/64 102/96/102 
f 104/98/104 20/18/20 62/56/62 102/96/102 
f 102/96/102 64/58/64 24/18/24 104/98/104 
f 103/97/103 68/62/68 20/18/20 104/98/104 
f 104/98/104 24/18/24 72/66/72 103/97/103 
f 105/99/105 106/100/106 12/11/12 62/56/62 
f 105/99/105 64/58/64 14/13/14 106/100/106 
f 107/101/107 20/18/20 12/11/12 106/100/106 
f 107/101/107 106/100/106 14/13/14 24/18/24 
f 105/99/105 62/56/62 20/18/20 107/101/107 
f 107/101/107 24/18/24 64/58/64 105/99/105 
f 108/102/108 29/25/29 75/69/75 109/103/109 
f 109/103/109 79/73/79 33/29/33 108/102/108 
f 108/102/108 110/104/110 30/26/30 29/25/29 
f 108/102/108 33/29/33 32/28/32 110/104/110 
f 109/103/109 75/69/75 30/26/30 110/104/110 
f 110/104/110 32/28/32 79/73/79 109/103/109 
f 111/105/111 69/63/69 75/69/75 112/106/112 
f 112/106/112 79/73/79 71/65/71 111/105/111 
f 113/107/113 29/25/29 69/63/69 111/105/111 
f 111/105/111 71/65/71 33/29/33 113/107/113 
f 112/106/112 75/69/75 29/25/29 113/107/113 
f 113/107/113 33/29/33 79/73/79 112/106/112 
f 114/108/114 115/109/115 21/19/21 69/63/69 
f 114/108/114 71/65/71 23/21/23 115/109/115 
f 116/110/116 29/25/29 21/19/21 115/109/115 
f 116/110/116 115/109/115 23/21/23 33/29/33 
f 114/108/114 69/63/69 29/25/29 116/110/116 
f 116/110/116 33/29/33 71/65/71 114/108/114 
f 117/111/117 38/33/38 47/41/47 118/112/118 
f 118/112/118 51/45/51 42/36/42 117/111/117 
f 117/111/117 119/113/119 39/34/39 38/33/38 
f 117/111/117 42/36/42 41/34/41 119/113/119 
f 118/112/118 47/41/47 39/34/39 119/113/119 
f 119/113/119 41/34/41 51/45/51 118/112/118 
f 120/114/120 76/70/76 47/41/47 121/115/121 
f 121/115/121 51/45/51 78/72/78 120/114/120 
f 122/116/122 38/33/38 76/70/76 120/114/120 
f 120/114/120 78/72/78 42/36/42 122/116/122 
f 121/115/121 47/41/47 38/33/38 122/116/122 
f 122/116/122 42/36/42 51/45/51 121/115/121 
f 123/117/123 124/118/124 30/26/30 76/70/76 
f 123/117/123 78/72/78 32/28/32 124/118/124 
f 125/119/125 38/33/38 30/26/30 124/118/124 
f 125/119/125 124/118/124 32/28/32 42/36/42 
f 123/117/123 76/70/76 38/33/38 125/119/125 
f 125/119/125 42/36/42 78/72/78 123/117/123 
f 126/120/126 44/38/44 8/8/8 127/121/127 
f 127/121/127 9/8/9 45/39/45 126/120/126 
f 126/120/126 128/122/128 129/123/129 44/38/44 
f 126/120/126 45/39/45 130/123/130 128/122/128 
f 127/121/127 8/8/8 129/123/129 128/122/128 
f 127/121/127 128/122/128 130/123/130 9/8/9 
f 131/124/131 2/2/2 8/8/8 132/125/132 
f 132/125/132 9/8/9 6/6/6 131/124/131 
f 133/126/133 44/38/44 2/2/2 131/124/131 
f 131/124/131 6/6/6 45/39/45 133/126/133 
f 132/125/132 8/8/8 44/38/44 133/126/133 
f 133/126/133 45/39/45 9/8/9 132/125/132 
f 134/127/134 135/128/135 39/34/39 2/2/2 
f 134/127/134 6/6/6 41/34/41 135/128/135 
f 136/129/136 44/38/44 39/34/39 135/128/135 
f 136/129/136 135/128/135 41/34/41 45/39/45 
f 134/127/134 2/2/2 44/38/44 136/129/136 
f 136/129/136 45/39/45 6/6/6 134/127/134 
f 137/130/137 8/8/8 17/16/17 138/131/138 
f 138/131/138 18/16/18 9/8/9 137/130/137 
f 137/130/137 139/132/139 129/123/129 8/8/8 
f 137/130/137 9/8/9 130/123/130 139/132/139 
f 138/131/138 17/16/17 129/123/129 139/132/139 
f 138/131/138 139/132/139 130/123/130 18/16/18 
f 140/133/140 11/10/11 17/16/17 141/134/141 
f 141/134/141 18/16/18 15/14/15 140/133/140 
f 142/135/142 8/8/8 11/10/11 140/133/140 
f 140/133/140 15/14/15 9/8/9 142/135/142 
f 141/134/141 17/16/17 8/8/8 142/135/142 
f 142/135/142 9/8/9 18/16/18 141/134/141 
f 143/136/143 144/137/144 3/3/3 11/10/11 
f 143/136/143 15/14/15 5/5/5 144/137/144 
f 145/138/145 8/8/8 3/3/3 144/137/144 
f 145/138/145 144/137/144 5/5/5 9/8/9 
f 143/136/143 11/10/11 8/8/8 145/138/145 
f 145/138/145 9/8/9 15/14/15 143/136/143 
f 146/139/146 17/16/17 26/23/26 147/140/147 
f 147/140/147 27/23/27 18/16/18 146/139/146 
f 146/139/146 148/141/148 129/123/129 17/16/17 
f 146/139/146 18/16/18 130/123/130 148/141/148 
f 147/140/147 26/23/26 129/123/129 148/141/148 
f 147/140/147 148/141/148 130/123/130 27/23/27 
f 149/142/149 20/18/20 26/23/26 150/143/150 
f 150/143/150 27/23/27 24/18/24 149/142/149 
f 151/144/151 17/16/17 20/18/20 149/142/149 
f 149/142/149 24/18/24 18/16/18 151/144/151 
f 150/143/150 26/23/26 17/16/17 151/144/151 
f 151/144/151 18/16/18 27/23/27 150/143/150 
f 152/145/152 153/146/153 12/11/12 20/18/20 
f 152/145/152 24/18/24 14/13/14 153/146/153 
f 154/147/154 17/16/17 12/11/12 153/146/153 
f 154/147/154 153/146/153 14/13/14 18/16/18 
f 152/145/152 20/18/20 17/16/17 154/147/154 
f 154/147/154 18/16/18 24/18/24 152/145/152 
f 155/148/155 26/23/26 35/31/35 156/149/156 
f 156/149/156 36/31/36 27/23/27 155/148/155 
f 155/148/155 157/150/157 129/123/129 26/23/26 
f 155/148/155 27/23/27 130/123/130 157/150/157 
f 156/149/156 35/31/35 129/123/129 157/150/157 
f 156/149/156 157/150/157 130/123/130 36/31/36 
f 158/151/158 29/25/29 35/31/35 159/152/159 
f 159/152/159 36/31/36 33/29/33 158/151/158 
f 160/153/160 26/23/26 29/25/29 158/151/158 
f 158/151/158 33/29/33 27/23/27 160/153/160 
f 159/152/159 35/31/35 26/23/26 160/153/160 
f 160/153/160 27/23/27 36/31/36 159/152/159 
f 161/154/161 162/155/162 21/19/21 29/25/29 
f 161/154/161 33/29/33 23/21/23 162/155/162 
f 163/156/163 26/23/26 21/19/21 162/155/162 
f 163/156/163 162/155/162 23/21/23 27/23/27 
f 161/154/161 29/25/29 26/23/26 163/156/163 
f 163/156/163 27/23/27 33/29/33 161/154/161 
f 164/157/164 35/31/35 44/38/44 165/158/165 
f 165/158/165 45/39/45 36/31/36 164/157/164 
f 164/157/164 166/159/166 129/123/129 35/31/35 
f 164/157/164 36/31/36 130/123/130 166/159/166 
f 165/158/165 44/38/44 129/123/129 166/159/166 
f 165/158/165 166/159/166 130/123/130 45/39/45 
f 167/160/167 38/33/38 44/38/44 168/161/168 
f 168/161/168 45/39/45 42/36/42 167/160/167 
f 169/162/169 35/31/35 38/33/38 167/160/167 
f 167/160/167 42/36/42 36/31/36 169/162/169 
f 168/161/168 44/38/44 35/31/35 169/162/169 
f 169/162/169 36/31/36 45/39/45 168/161/168 
f 170/163/170 171/164/171 30/26/30 38/33/38 
f 170/163/170 42/36/42 32/28/32 171/164/171 
f 172/165/172 35/31/35 30/26/30 171/164/171 
f 172/165/172 171/164/171 32/28/32 36/31/36 
f 170/163/170 38/33/38 35/31/35 172/165/172 
f 172/165/172 36/31/36 42/36/42 170/163/170 
# 240 polygons

