# 3ds Max Wavefront OBJ Exporter v0.99 - (c)2007 guruware
# File Created: 10.05.2022 15:19:13

mtllib rwk.mtl

#
# object Layer0_001
#

v  -13.5471 0.0000 13.4854
v  -8.5312 0.0000 5.5877
v  -13.9273 0.0000 -1.2949
v  -16.5715 0.0000 6.2625
v  13.9625 1.5000 4.6573
v  15.8063 1.5000 -3.9439
v  12.7896 1.5000 -10.9491
v  2.6596 1.5000 3.2530
v  0.3714 1.5000 -6.2378
v  -13.5471 1.5000 13.4854
v  -8.5312 1.5000 5.5877
v  -13.9273 1.5000 -1.2949
v  -16.5715 1.5000 6.2625
v  12.7896 0.0000 -10.9491
v  15.8063 0.0000 -3.9439
v  0.3714 0.0000 -6.2378
v  2.6596 0.0000 3.2530
v  13.9625 0.0000 4.6573
v  -14.2646 1.5000 -14.6441
v  -14.2646 0.0000 -14.6441
v  -16.0040 0.0000 -9.9745
v  -16.0040 1.5000 -9.9745
v  -9.7459 1.5000 -8.3816
v  -9.7459 0.0000 -8.3816
v  -9.7459 0.0000 -13.1409
v  -9.7459 1.5000 -13.1409
v  12.1601 0.0000 -11.5666
v  13.7584 0.0000 -15.8547
v  7.6429 0.0000 -13.9449
v  0.0823 0.0000 -7.4420
v  -0.3400 0.0000 -15.7194
v  12.1601 1.5000 -11.5666
v  13.7584 1.5000 -15.8547
v  7.6429 1.5000 -13.9449
v  0.0823 1.5000 -7.4420
v  -0.3400 1.5000 -15.7194
v  -9.6301 0.0000 -7.1022
v  -9.6301 1.5000 -7.1022
v  -8.8290 1.5000 3.5457
v  -8.8290 0.0000 3.5457
v  -15.9229 1.5000 -9.1021
v  -15.9229 0.0000 -9.1021
v  -13.8719 1.5000 -2.4448
v  -13.8719 0.0000 -2.4448
v  9.9471 1.5000 15.0505
v  16.5715 1.5000 12.4443
v  14.0956 1.5000 6.1511
v  3.0280 1.5000 4.6200
v  1.5038 1.5000 12.9736
v  14.0956 0.0000 6.1511
v  3.0280 0.0000 4.6200
v  1.5038 0.0000 12.9736
v  9.9471 0.0000 15.0505
v  16.5715 0.0000 12.4443
v  -8.6635 1.5000 -7.4695
v  -8.6635 0.0000 -7.4695
v  -7.8328 0.0000 5.5718
v  -7.8328 1.5000 5.5718
v  1.4937 1.5000 7.6691
v  1.4937 0.0000 7.6691
v  2.2411 0.0000 4.3453
v  2.2411 1.5000 4.3453
v  -0.8389 0.0000 -6.5145
v  -0.8389 1.5000 -6.5145
v  -8.0125 1.5000 6.6313
v  1.2359 1.5000 8.5825
v  1.2359 0.0000 8.5825
v  -8.0125 0.0000 6.6313
v  -7.1607 1.5000 15.8547
v  -12.8242 1.5000 13.8735
v  -12.8242 0.0000 13.8735
v  -7.1607 0.0000 15.8547
v  0.0193 1.5000 12.9941
v  0.0193 0.0000 12.9941
v  -0.8688 1.5000 -7.5999
v  -1.4065 1.5000 -15.6158
v  -8.2063 1.5000 -13.2395
v  -8.6653 1.5000 -8.3287
v  -1.4065 0.0000 -15.6158
v  -8.2063 0.0000 -13.2395
v  -8.6653 0.0000 -8.3287
v  -0.8688 0.0000 -7.5999
# 82 vertices

vn 0.0000 1.0000 -0.0000
vn 0.9185 0.0000 -0.3955
vn -0.3547 0.0000 -0.9350
vn -0.9721 0.0000 0.2344
vn -0.1233 0.0000 0.9924
vn 0.9778 0.0000 0.2096
vn -0.9439 0.0000 -0.3302
vn -0.9371 0.0000 -0.3491
vn -0.2467 0.0000 0.9691
vn 1.0000 0.0000 -0.0000
vn 0.3157 0.0000 -0.9489
vn 0.7870 0.0000 -0.6170
vn 0.8441 0.0000 0.5361
vn -0.9224 0.0000 0.3862
vn 0.9972 0.0000 -0.0750
vn 0.3029 0.0000 -0.9530
vn 0.2170 0.0000 -0.9762
vn 0.9370 0.0000 0.3493
vn 0.3232 0.0000 0.9463
vn -0.9987 0.0000 0.0509
vn -0.2981 0.0000 -0.9545
vn -0.7650 0.0000 0.6440
vn -0.9557 0.0000 0.2944
vn 0.1370 0.0000 -0.9906
vn -0.9838 0.0000 -0.1795
vn -0.2389 0.0000 0.9711
vn 0.3661 0.0000 0.9306
vn 0.9306 0.0000 -0.3661
vn -0.9980 0.0000 0.0636
vn -0.2194 0.0000 0.9756
vn 0.9756 0.0000 0.2194
vn 0.9621 0.0000 -0.2729
vn 0.1212 0.0000 -0.9926
vn 0.2064 0.0000 -0.9785
vn -0.3302 0.0000 0.9439
vn -0.8329 0.0000 -0.5534
vn 0.3701 0.0000 0.9290
vn 0.9640 0.0000 0.2659
vn -0.3299 0.0000 -0.9440
vn -0.0931 0.0000 0.9957
vn 0.9978 0.0000 -0.0669
vn -0.9957 0.0000 -0.0931
# 42 vertex normals

vt -1.2907 -3.1883 0.0000
vt -0.7891 -2.3985 0.0000
vt -1.3287 -1.7102 0.0000
vt -1.5931 -2.4660 0.0000
vt 1.4603 -2.3054 0.0000
vt 1.6446 -1.4453 0.0000
vt 1.3430 -0.7448 0.0000
vt 0.3300 -2.1650 0.0000
vt 0.1011 -1.2159 0.0000
vt -1.2152 0.0000 0.0000
vt -1.9780 0.1500 0.0000
vt -1.9780 0.0000 0.0000
vt -1.2152 0.1500 0.0000
vt 0.3368 0.1500 0.0000
vt -0.9914 0.0000 0.0000
vt 0.3368 0.0000 0.0000
vt -0.9914 0.1500 0.0000
vt 1.2058 0.1500 0.0000
vt 2.1820 0.0000 0.0000
vt 2.1820 0.1500 0.0000
vt 1.2058 0.0000 0.0000
vt 1.7334 0.1500 0.0000
vt 0.5944 0.0000 0.0000
vt 1.7334 0.0000 0.0000
vt 0.5944 0.1500 0.0000
vt -1.0685 0.0000 0.0000
vt -1.9482 0.1500 0.0000
vt -1.9482 0.0000 0.0000
vt -1.0685 0.1500 0.0000
vt 2.0531 0.1500 0.0000
vt 2.8537 0.0000 0.0000
vt 2.8537 0.1500 0.0000
vt 2.0531 0.0000 0.0000
vt 0.8273 0.1500 0.0000
vt 0.8273 -0.0000 0.0000
vt 1.3256 0.0000 0.0000
vt 1.3256 0.1500 0.0000
vt -0.6354 0.1500 0.0000
vt -1.2812 -0.0000 0.0000
vt -0.6354 -0.0000 0.0000
vt -1.2812 0.1500 0.0000
vt -0.5256 -0.0000 0.0000
vt -1.0016 0.1500 0.0000
vt -1.0016 -0.0000 0.0000
vt -0.5256 0.1500 0.0000
vt 1.1743 0.1500 0.0000
vt 0.6981 -0.0000 0.0000
vt 1.1743 -0.0000 0.0000
vt 0.6981 0.1500 0.0000
vt -0.9106 -1.0016 0.0000
vt -1.3625 -0.3753 0.0000
vt -1.5364 -0.8423 0.0000
vt -0.9106 -0.5256 0.0000
vt -1.4006 0.1500 0.0000
vt -1.4006 0.0000 0.0000
vt -2.4477 0.0000 0.0000
vt -3.3833 0.1500 0.0000
vt -3.3833 0.0000 0.0000
vt -2.4477 0.1500 0.0000
vt 1.6593 0.1500 0.0000
vt 2.4424 0.0000 0.0000
vt 2.4424 0.1500 0.0000
vt 1.6593 0.0000 0.0000
vt 1.0667 -0.5692 0.0000
vt 1.1999 -0.2119 0.0000
vt 0.6902 -0.3710 0.0000
vt 0.0602 -0.9129 0.0000
vt 0.0250 -0.2231 0.0000
vt -0.8824 0.0000 0.0000
vt -0.8824 0.1250 0.0000
vt -1.7722 0.1250 0.0000
vt -1.7722 0.0000 0.0000
vt 0.9791 0.1250 0.0000
vt 0.4289 0.0000 0.0000
vt 0.9791 0.0000 0.0000
vt 0.4289 0.1250 0.0000
vt -0.0728 0.1250 0.0000
vt -0.7543 0.0000 0.0000
vt -0.0728 0.0000 0.0000
vt -0.7543 0.1250 0.0000
vt 0.2205 0.0000 0.0000
vt -0.1608 0.1250 0.0000
vt -0.1608 0.0000 0.0000
vt 0.2205 0.1250 0.0000
vt 0.8255 0.1250 0.0000
vt -0.2381 0.0000 0.0000
vt 0.8255 0.0000 0.0000
vt -0.2381 0.1250 0.0000
vt 0.2241 0.1250 0.0000
vt 0.9148 0.0000 0.0000
vt 0.9148 0.1250 0.0000
vt 0.2241 0.0000 0.0000
vt -0.5483 0.1250 0.0000
vt -1.0822 0.0000 0.0000
vt -0.5483 0.0000 0.0000
vt -1.0822 0.1250 0.0000
vt 0.3069 0.1250 0.0000
vt 0.9594 0.0000 0.0000
vt 0.9594 0.1250 0.0000
vt 0.3069 0.0000 0.0000
vt 0.3653 0.1250 0.0000
vt 0.9458 0.0000 0.0000
vt 0.9458 0.1250 0.0000
vt 0.3653 0.0000 0.0000
vt -1.1027 -1.3294 0.0000
vt -0.7492 -0.9412 0.0000
vt -1.2736 -0.7746 0.0000
vt -0.6824 -1.8286 0.0000
vt 1.0587 -3.3448 0.0000
vt 1.7211 -3.0841 0.0000
vt 1.4736 -2.4548 0.0000
vt 0.3668 -2.3017 0.0000
vt 0.2144 -3.1371 0.0000
vt -0.6788 0.1500 0.0000
vt -1.7961 0.0000 0.0000
vt -0.6788 0.0000 0.0000
vt -1.7961 0.1500 0.0000
vt 2.1985 0.1500 0.0000
vt 3.0476 0.0000 0.0000
vt 3.0476 0.1500 0.0000
vt 2.1985 0.0000 0.0000
vt 1.8270 0.1500 0.0000
vt 0.9575 0.0000 0.0000
vt 1.8270 0.0000 0.0000
vt 0.9575 0.1500 0.0000
vt 0.4725 0.1500 0.0000
vt -0.2393 0.0000 0.0000
vt 0.4725 0.0000 0.0000
vt -0.2393 0.1500 0.0000
vt -2.8239 0.0000 0.0000
vt -3.5001 0.1500 0.0000
vt -3.5001 0.0000 0.0000
vt -2.8239 0.1500 0.0000
vt 1.0395 0.1500 0.0000
vt 1.0395 0.0000 0.0000
vt 2.3463 0.0000 0.0000
vt 2.3463 0.1500 0.0000
vt 0.7800 0.1500 0.0000
vt -0.1759 0.0000 0.0000
vt 0.7800 0.0000 0.0000
vt -0.1759 0.1500 0.0000
vt -2.1556 0.0000 0.0000
vt -2.4963 0.1500 0.0000
vt -2.4963 0.0000 0.0000
vt -2.1556 0.1500 0.0000
vt -1.1377 0.0000 0.0000
vt -2.2666 0.1500 0.0000
vt -2.2666 0.0000 0.0000
vt -1.1377 0.1500 0.0000
vt 0.6640 0.1500 0.0000
vt -0.1242 0.0000 0.0000
vt 0.6640 0.0000 0.0000
vt -0.1242 0.1500 0.0000
vt -0.7193 -2.3969 0.0000
vt -0.0199 -1.1883 0.0000
vt -0.8023 -1.0928 0.0000
vt 0.2134 -2.6066 0.0000
vt 0.2881 -2.2742 0.0000
vt 0.2047 0.1500 0.0000
vt -0.7405 0.1500 0.0000
vt -0.7405 0.0000 0.0000
vt 0.2047 0.0000 0.0000
vt 0.5155 0.1500 0.0000
vt -0.0845 0.1500 0.0000
vt -0.0845 0.0000 0.0000
vt 0.5155 0.0000 0.0000
vt 2.4927 0.1500 0.0000
vt 3.3622 0.0000 0.0000
vt 3.3622 0.1500 0.0000
vt 2.4927 0.0000 0.0000
vt -1.1006 0.1500 0.0000
vt -1.8735 0.0000 0.0000
vt -1.1006 0.0000 0.0000
vt -1.8735 0.1500 0.0000
vt -2.5510 0.0000 0.0000
vt -3.0086 0.1500 0.0000
vt -3.0086 0.0000 0.0000
vt -2.5510 0.1500 0.0000
vt -0.6521 -3.4252 0.0000
vt -0.7373 -2.5028 0.0000
vt -1.2184 -3.2271 0.0000
vt 0.1876 -2.6980 0.0000
vt 0.0659 -3.1391 0.0000
vt -0.0229 -1.0797 0.0000
vt -0.0767 -0.2781 0.0000
vt -0.7566 -0.5158 0.0000
vt -0.8025 -1.0068 0.0000
vt 0.8844 0.1500 0.0000
vt 0.1641 0.0000 0.0000
vt 0.8844 0.0000 0.0000
vt 0.1641 0.1500 0.0000
vt 0.0777 0.1500 0.0000
vt -0.7053 0.0000 0.0000
vt 0.0777 0.0000 0.0000
vt -0.7053 0.1500 0.0000
vt -0.2724 0.0000 0.0000
vt -1.0758 0.1500 0.0000
vt -1.0758 0.0000 0.0000
vt -0.2724 0.1500 0.0000
vt 0.5839 0.1500 0.0000
vt 1.0772 0.0000 0.0000
vt 1.0772 0.1500 0.0000
vt 0.5839 0.0000 0.0000
# 203 texture coords

o Layer0_001
g Layer0_001
usemtl 09___Default
s off
f 1/1/1 2/2/1 3/3/1 
f 3/3/1 4/4/1 1/1/1 
usemtl 14___Default
f 5/5/1 6/6/1 7/7/1 
f 8/8/1 5/5/1 7/7/1 
f 8/8/1 7/7/1 9/9/1 
f 10/1/1 11/2/1 12/3/1 
f 12/3/1 13/4/1 10/1/1 
f 14/10/2 6/11/2 15/12/2 
f 6/11/2 14/10/2 7/13/2 
f 9/14/3 14/15/3 16/16/3 
f 14/15/3 9/14/3 7/17/3 
f 9/18/4 17/19/4 8/20/4 
f 17/19/4 9/18/4 16/21/4 
f 5/22/5 17/23/5 18/24/5 
f 17/23/5 5/22/5 8/25/5 
f 15/26/6 5/27/6 18/28/6 
f 5/27/6 15/26/6 6/29/6 
f 12/30/7 4/31/7 13/32/7 
f 4/31/7 12/30/7 3/33/7 
usemtl 04___Default
f 19/34/8 20/35/8 21/36/8 
f 21/36/8 22/37/8 19/34/8 
f 23/38/9 21/39/9 24/40/9 
f 21/39/9 23/38/9 22/41/9 
usemtl 09___Default
f 25/42/10 23/43/10 24/44/10 
f 23/43/10 25/42/10 26/45/10 
usemtl 04___Default
f 19/46/11 25/47/11 20/48/11 
f 25/47/11 19/46/11 26/49/11 
f 24/50/1 20/51/1 21/52/1 
f 20/51/1 24/50/1 25/53/1 
f 23/50/1 19/51/1 22/52/1 
f 19/51/1 23/50/1 26/53/1 
usemtl 14___Default
f 3/42/12 11/54/12 2/55/12 
f 11/54/12 3/42/12 12/45/12 
f 2/56/13 10/57/13 1/58/13 
f 10/57/13 2/56/13 11/59/13 
f 13/60/14 1/61/14 10/62/14 
f 1/61/14 13/60/14 4/63/14 
f 18/5/1 15/6/1 14/7/1 
f 17/8/1 18/5/1 14/7/1 
f 17/8/1 14/7/1 16/9/1 
usemtl 09___Default
f 27/64/1 28/65/1 29/66/1 
f 30/67/1 27/64/1 29/66/1 
f 30/67/1 29/66/1 31/68/1 
usemtl Material__231
f 32/64/1 33/65/1 34/66/1 
f 35/67/1 32/64/1 34/66/1 
f 35/67/1 34/66/1 36/68/1 
usemtl 09___Default
f 37/69/15 38/70/15 39/71/15 
f 39/71/15 40/72/15 37/69/15 
f 41/73/16 37/74/16 42/75/16 
f 37/74/16 41/73/16 38/76/16 
usemtl Material__231
f 36/77/17 29/78/17 31/79/17 
f 29/78/17 36/77/17 34/80/17 
f 28/81/18 32/82/18 27/83/18 
f 32/82/18 28/81/18 33/84/18 
f 32/85/19 30/86/19 27/87/19 
f 30/86/19 32/85/19 35/88/19 
f 36/89/20 30/90/20 35/91/20 
f 30/90/20 36/89/20 31/92/20 
f 34/93/21 28/94/21 29/95/21 
f 28/94/21 34/93/21 33/96/21 
usemtl 09___Default
f 43/97/22 40/98/22 39/99/22 
f 40/98/22 43/97/22 44/100/22 
f 41/101/23 44/102/23 43/103/23 
f 44/102/23 41/101/23 42/104/23 
f 43/105/1 38/106/1 41/107/1 
f 38/106/1 43/105/1 39/108/1 
f 44/105/1 37/106/1 42/107/1 
f 37/106/1 44/105/1 40/108/1 
usemtl 04___Default
f 45/109/1 46/110/1 47/111/1 
f 45/109/1 47/111/1 48/112/1 
f 45/109/1 48/112/1 49/113/1 
f 48/114/24 50/115/24 51/116/24 
f 50/115/24 48/114/24 47/117/24 
usemtl 09___Default
f 48/118/25 52/119/25 49/120/25 
f 52/119/25 48/118/25 51/121/25 
usemtl 04___Default
f 45/122/26 52/123/26 53/124/26 
f 52/123/26 45/122/26 49/125/26 
f 46/126/27 53/127/27 54/128/27 
f 53/127/27 46/126/27 45/129/27 
f 50/130/28 46/131/28 54/132/28 
f 46/131/28 50/130/28 47/133/28 
usemtl Material__231
f 55/134/29 56/135/29 57/136/29 
f 57/136/29 58/137/29 55/134/29 
f 59/138/30 57/139/30 60/140/30 
f 57/139/30 59/138/30 58/141/30 
f 61/142/31 59/143/31 60/144/31 
f 59/143/31 61/142/31 62/145/31 
f 63/146/32 62/147/32 61/148/32 
f 62/147/32 63/146/32 64/149/32 
f 55/150/33 63/151/33 56/152/33 
f 63/151/33 55/150/33 64/153/33 
f 58/154/1 64/155/1 55/156/1 
f 64/155/1 58/154/1 59/157/1 
f 64/155/1 59/157/1 62/158/1 
usemtl 04___Default
f 53/109/1 51/112/1 52/113/1 
f 51/112/1 53/109/1 50/111/1 
f 50/111/1 53/109/1 54/110/1 
usemtl 09___Default
f 57/154/1 63/155/1 56/156/1 
f 63/155/1 57/154/1 60/157/1 
f 63/155/1 60/157/1 61/158/1 
f 65/159/34 66/160/34 67/161/34 
f 67/161/34 68/162/34 65/159/34 
f 69/163/35 70/164/35 71/165/35 
f 71/165/35 72/166/35 69/163/35 
f 65/167/36 71/168/36 70/169/36 
f 71/168/36 65/167/36 68/170/36 
f 73/171/37 72/172/37 74/173/37 
f 72/172/37 73/171/37 69/174/37 
f 67/175/38 73/176/38 74/177/38 
f 73/176/38 67/175/38 66/178/38 
f 69/179/1 65/180/1 70/181/1 
f 65/180/1 69/179/1 66/182/1 
f 66/182/1 69/179/1 73/183/1 
f 75/184/1 76/185/1 77/186/1 
f 77/186/1 78/187/1 75/184/1 
f 77/188/39 79/189/39 80/190/39 
f 79/189/39 77/188/39 76/191/39 
f 75/192/40 81/193/40 82/194/40 
f 81/193/40 75/192/40 78/195/40 
f 82/184/1 80/186/1 81/187/1 
f 80/186/1 82/184/1 79/185/1 
f 79/196/41 75/197/41 82/198/41 
f 75/197/41 79/196/41 76/199/41 
f 72/179/1 68/180/1 71/181/1 
f 68/180/1 72/179/1 67/182/1 
f 67/182/1 72/179/1 74/183/1 
f 77/200/42 81/201/42 78/202/42 
f 81/201/42 77/200/42 80/203/42 
# 128 faces

