# 3ds Max Wavefront OBJ Exporter v0.99 - (c)2007 guruware
# File Created: 05.04.2022 22:38:53

mtllib micasa.mtl

#
# object Box001
#

v  -29.0181 0.0000 30.5946
v  -29.0181 0.0000 -35.7092
v  22.5036 0.0000 -35.7092
v  22.5036 0.0000 30.5946
v  -29.0181 39.8410 30.5946
v  22.5036 39.8410 30.5946
v  22.5036 39.8410 -35.7092
v  -29.0181 39.8410 -35.7092
# 8 vertices

vn 0.0000 -1.0000 -0.0000
vn 0.0000 1.0000 -0.0000
vn 0.0000 0.0000 1.0000
vn 1.0000 0.0000 -0.0000
vn 0.0000 0.0000 -1.0000
vn -1.0000 0.0000 -0.0000
# 6 vertex normals

vt 1.0000 0.0000 0.0000
vt 1.0000 1.0000 0.0000
vt 0.0000 1.0000 0.0000
vt 0.0000 0.0000 0.0000
# 4 texture coords

o Box001
g Box001
usemtl 08___Default
s 2
f 1/1/1 2/2/1 3/3/1 
f 3/3/1 4/4/1 1/1/1 
s 4
f 5/4/2 6/1/2 7/2/2 
f 7/2/2 8/3/2 5/4/2 
s 8
f 1/4/3 4/1/3 6/2/3 
f 6/2/3 5/3/3 1/4/3 
s 16
f 4/4/4 3/1/4 7/2/4 
f 7/2/4 6/3/4 4/4/4 
s 32
f 3/4/5 2/1/5 8/2/5 
f 8/2/5 7/3/5 3/4/5 
s 64
f 2/4/6 1/1/6 5/2/6 
f 5/2/6 8/3/6 2/4/6 
# 12 faces

#
# object Pyramid001
#

v  -2.1985 94.6493 -1.7555
v  -34.6210 40.9810 53.9062
v  30.2240 40.9810 53.9062
v  30.2240 40.9810 -57.4172
v  -34.6210 40.9810 -57.4172
v  -2.1985 40.9810 -1.7555
# 6 vertices

vn 0.0000 0.7199 0.6941
vn 0.8559 0.5171 -0.0000
vn 0.0000 0.7199 -0.6941
vn -0.8559 0.5171 -0.0000
vn 0.0000 -1.0000 -0.0000
# 5 vertex normals

vt 0.5000 1.0000 0.0000
vt 0.0000 0.0000 0.0000
vt 1.0000 0.0000 0.0000
vt 0.0000 1.0000 0.0000
vt 0.5000 0.5000 0.0000
vt 1.0000 1.0000 0.0000
# 6 texture coords

o Pyramid001
g Pyramid001
usemtl 07___Default
s 4
f 9/5/7 10/6/7 11/7/7 
s 2
f 9/5/8 11/6/8 12/7/8 
s 16
f 9/5/9 12/6/9 13/7/9 
s 32
f 9/5/10 13/6/10 10/7/10 
s 8
f 10/8/11 14/9/11 11/10/11 
f 11/10/11 14/9/11 12/7/11 
f 12/7/11 14/9/11 13/6/11 
f 13/6/11 14/9/11 10/8/11 
# 8 faces

